<svg xmlns="http://www.w3.org/2000/svg" xmlns:xlink="http://www.w3.org/1999/xlink" width="209.446" height="76.24" viewBox="0 0 209.446 76.24">
  <defs>
    <filter id="Rettangolo_7" x="0" y="0" width="209.446" height="76.24" filterUnits="userSpaceOnUse">
      <feOffset dy="3" input="SourceAlpha"/>
      <feGaussianBlur stdDeviation="3" result="blur"/>
      <feFlood flood-opacity="0.161"/>
      <feComposite operator="in" in2="blur"/>
      <feComposite in="SourceGraphic"/>
    </filter>
  </defs>
  <g id="BUTTON_GOOGLE_PLAY" data-name="BUTTON GOOGLE PLAY" transform="translate(9 6)">
    <g transform="matrix(1, 0, 0, 1, -9, -6)" filter="url(#Rettangolo_7)">
      <rect id="Rettangolo_7-2" data-name="Rettangolo 7" width="191.446" height="58.24" rx="8" transform="translate(9 6)" fill="#fff"/>
    </g>
    <g id="Raggruppa_12" data-name="Raggruppa 12" transform="translate(14.176 10.936)">
      <path id="Tracciato_29" data-name="Tracciato 29" d="M2295.345,352.595,2274.3,340.444a2.145,2.145,0,0,0-2.6.341L2289.2,358.64Z" transform="translate(-2271.072 -340.152)" fill="#27ec70"/>
      <path id="Tracciato_30" data-name="Tracciato 30" d="M2266.847,345.656a2.12,2.12,0,0,0-.63,1.522v31.85a2.121,2.121,0,0,0,.711,1.6l17.413-17.114Z" transform="translate(-2266.217 -345.024)" fill="#3ad5f9"/>
      <path id="Tracciato_31" data-name="Tracciato 31" d="M2272.405,518.228a2.141,2.141,0,0,0,2.516.265l20.391-11.772-5.494-5.607Z" transform="translate(-2271.695 -482.627)" fill="#f60f24"/>
      <path id="Tracciato_32" data-name="Tracciato 32" d="M2436.7,452.259l-6.536-3.774-6.151,6.045,5.494,5.607,7.193-4.152A2.151,2.151,0,0,0,2436.7,452.259Z" transform="translate(-2405.886 -436.042)" fill="#fcd831"/>
    </g>
    <path id="Tracciato_33" data-name="Tracciato 33" d="M2647.777,341.919h3.495v.292a6.278,6.278,0,0,1-.225,1.763,3.919,3.919,0,0,1-3.736,2.713,4.032,4.032,0,0,1-3.039-1.339,4.763,4.763,0,0,1,.022-6.491,4.3,4.3,0,0,1,4.984-.921,5.391,5.391,0,0,1,1.615,1.374l-.909.91a3.052,3.052,0,0,0-2.535-1.448,2.966,2.966,0,0,0-2.252.967,3.308,3.308,0,0,0-.909,2.381,3.2,3.2,0,0,0,1.013,2.432,2.956,2.956,0,0,0,2.054.887,2.488,2.488,0,0,0,1.692-.664,2.4,2.4,0,0,0,.838-1.6h-2.108Z" transform="translate(-2585.555 -326.879)" fill="#2a333a"/>
    <path id="Tracciato_34" data-name="Tracciato 34" d="M2737.114,340.26h-3.39v2.123h3.291v1.254h-3.291v2.953h3.39v1.253h-4.666v-8.837h4.666Z" transform="translate(-2664.724 -328.201)" fill="#2a333a"/>
    <path id="Tracciato_35" data-name="Tracciato 35" d="M2790.189,340.26v7.584h-1.276V340.26h-1.945v-1.254h5.159v1.254Z" transform="translate(-2712.982 -328.201)" fill="#2a333a"/>
    <path id="Tracciato_36" data-name="Tracciato 36" d="M2872.048,339.006v8.837h-1.276v-8.837Z" transform="translate(-2787.16 -328.201)" fill="#2a333a"/>
    <path id="Tracciato_37" data-name="Tracciato 37" d="M2898.582,340.26v7.584h-1.276V340.26h-1.944v-1.254h5.159v1.254Z" transform="translate(-2808.925 -328.201)" fill="#2a333a"/>
    <path id="Tracciato_38" data-name="Tracciato 38" d="M2971.982,342.106a4.426,4.426,0,0,1,1.309-3.205,4.216,4.216,0,0,1,3.133-1.339,4.139,4.139,0,0,1,3.1,1.351,4.517,4.517,0,0,1,1.3,3.245,4.445,4.445,0,0,1-1.3,3.234,4.33,4.33,0,0,1-6.1.149A4.432,4.432,0,0,1,2971.982,342.106Zm1.287.017a3.266,3.266,0,0,0,.942,2.41,3.026,3.026,0,0,0,4.409-.017,3.544,3.544,0,0,0,.011-4.739,3.059,3.059,0,0,0-4.453,0A3.265,3.265,0,0,0,2973.269,342.123Z" transform="translate(-2876.746 -326.922)" fill="#2a333a"/>
    <path id="Tracciato_39" data-name="Tracciato 39" d="M2652.855,470.844h7.955v.582a12.017,12.017,0,0,1-.469,3.516,7.477,7.477,0,0,1-1.54,2.648,7.984,7.984,0,0,1-6.244,2.762,8.583,8.583,0,0,1-6.334-2.671,9.2,9.2,0,0,1,10.432-14.781,11.124,11.124,0,0,1,3.367,2.739l-1.895,1.815a6.429,6.429,0,0,0-5.284-2.888,6.315,6.315,0,0,0-4.692,1.929,6.442,6.442,0,0,0-1.895,4.748,6.623,6.623,0,0,0,6.392,6.62,5.315,5.315,0,0,0,3.528-1.324,4.712,4.712,0,0,0,1.746-3.2h-5.066Z" transform="translate(-2586.067 -437.118)" fill="#2a333a"/>
    <path id="Tracciato_40" data-name="Tracciato 40" d="M2807.969,526.141a5.334,5.334,0,0,1,1.664-3.957,5.871,5.871,0,0,1,8.134.011,5.749,5.749,0,0,1-.011,8.079,5.688,5.688,0,0,1-4.111,1.62,5.453,5.453,0,0,1-4.044-1.653A5.556,5.556,0,0,1,2807.969,526.141Zm2.535.044a3.621,3.621,0,0,0,.859,2.546,3.341,3.341,0,0,0,4.651.011,4.03,4.03,0,0,0,0-5,3.3,3.3,0,0,0-4.629,0A3.449,3.449,0,0,0,2810.5,526.185Z" transform="translate(-2731.571 -488.897)" fill="#2a333a"/>
    <path id="Tracciato_41" data-name="Tracciato 41" d="M2921.408,526.141a5.334,5.334,0,0,1,1.665-3.957,5.871,5.871,0,0,1,8.134.011,5.746,5.746,0,0,1-.012,8.079,5.686,5.686,0,0,1-4.11,1.62,5.456,5.456,0,0,1-4.045-1.653A5.561,5.561,0,0,1,2921.408,526.141Zm2.535.044a3.622,3.622,0,0,0,.859,2.546,3.341,3.341,0,0,0,4.651.011,4.028,4.028,0,0,0,0-5,3.3,3.3,0,0,0-4.629,0A3.45,3.45,0,0,0,2923.943,526.185Z" transform="translate(-2831.98 -488.897)" fill="#2a333a"/>
    <path id="Tracciato_42" data-name="Tracciato 42" d="M3045.744,531.332q0,.76-.05,1.339a9.206,9.206,0,0,1-.138,1.019,4.536,4.536,0,0,1-1.036,2.083,5.021,5.021,0,0,1-4,1.675,5.34,5.34,0,0,1-3.538-1.157,4.732,4.732,0,0,1-1.653-3.3h2.491a2.823,2.823,0,0,0,.474,1.223,2.663,2.663,0,0,0,2.249,1q2.722,0,2.722-3.34v-1.5a4.629,4.629,0,0,1-3.406,1.51,4.572,4.572,0,0,1-3.593-1.587,5.88,5.88,0,0,1-1.41-4.023,6.2,6.2,0,0,1,1.311-3.99,4.558,4.558,0,0,1,3.725-1.741,4.327,4.327,0,0,1,3.373,1.51v-1.212h2.48Zm-2.381-5.092a3.614,3.614,0,0,0-.837-2.5,2.771,2.771,0,0,0-2.172-.959,2.67,2.67,0,0,0-2.226,1.047,4.317,4.317,0,0,0,0,4.827,2.672,2.672,0,0,0,2.226,1.025,2.721,2.721,0,0,0,2.248-1.036A3.688,3.688,0,0,0,3043.364,526.24Z" transform="translate(-2932.397 -488.897)" fill="#2a333a"/>
    <path id="Tracciato_43" data-name="Tracciato 43" d="M3150.027,454.533v18.615h-2.479V454.533Z" transform="translate(-3032.147 -430.459)" fill="#2a333a"/>
    <path id="Tracciato_44" data-name="Tracciato 44" d="M3328.881,476.236V483.4h-2.66V465.763h3.015a40.781,40.781,0,0,1,5.5.308,4.487,4.487,0,0,1,2.01,1.165,5.018,5.018,0,0,1,1.519,3.746,4.834,4.834,0,0,1-1.622,3.838c-1.082.944-4.692,1.416-6.527,1.416Zm0-2.467h.995c2.444,0,5.817,0,5.817-2.821,0-2.73-3.412-2.73-5.932-2.73h-.88Z" transform="translate(-3190.298 -440.4)" fill="#2a333a"/>
    <path id="Tracciato_45" data-name="Tracciato 45" d="M3445.167,459.132V477.4h-2.434V459.132Z" transform="translate(-3293.429 -434.53)" fill="#2a333a"/>
    <path id="Tracciato_46" data-name="Tracciato 46" d="M3573.233,528.7l-5.545-9.251h2.823l4.031,6.731,3.545-6.731h2.748l-8.395,16.27h-2.78Z" transform="translate(-3404.032 -487.92)" fill="#2a333a"/>
    <path id="Tracciato_47" data-name="Tracciato 47" d="M3213.095,540.037a2.777,2.777,0,0,1,2.477,1.911,2.364,2.364,0,0,0-2.482-1.915,2.575,2.575,0,0,0-.848.138,2.439,2.439,0,0,0-.722.4,2.519,2.519,0,0,0-.557.623,2.806,2.806,0,0,0-.3.652A2.747,2.747,0,0,1,3213.095,540.037Z" transform="translate(-3088.012 -506.139)" fill="#2a333a"/>
    <path id="Tracciato_48" data-name="Tracciato 48" d="M3194.507,527.607a6.27,6.27,0,0,1-1.356,1.631,2.535,2.535,0,0,1-1.531.441,2.622,2.622,0,0,1-1.951-.771,2.746,2.746,0,0,1-.4-.528h0l4.939-2.5,2.189-1.108a5.536,5.536,0,0,0-.817-2.152,4.585,4.585,0,0,0-.433-.557,5.376,5.376,0,0,0-7.517.044,5.948,5.948,0,0,0-1.41,4.122,5.785,5.785,0,0,0,1.455,4.122,5.052,5.052,0,0,0,3.857,1.543,6.487,6.487,0,0,0,1.553-.176,4.646,4.646,0,0,0,1.334-.556,5.45,5.45,0,0,0,1.157-.97,8.337,8.337,0,0,0,1.026-1.416Zm-5.48-3.007a2.8,2.8,0,0,1,.3-.652,2.51,2.51,0,0,1,.556-.623,2.436,2.436,0,0,1,.722-.4,2.566,2.566,0,0,1,.848-.138,2.343,2.343,0,0,1,2.007.9l-4.76,2.409q0,.061,0,0h0A4.063,4.063,0,0,1,3189.026,524.6Z" transform="translate(-3066.377 -488.897)" fill="#2a333a"/>
    <path id="Tracciato_49" data-name="Tracciato 49" d="M3479.775,522.547c0-2.656,2.9-5.052,7.371-3.345-.005-1.569-.237-3.188-2.278-3.188a6.151,6.151,0,0,0-3.513,1.1l-1.039-2.051a9.306,9.306,0,0,1,4.906-1.592c3.048,0,4.338,1.729,4.338,4.765v7.481H3487.6l-.178-1.458h.142a6.715,6.715,0,0,1-4.131,1.759A3.36,3.36,0,0,1,3479.775,522.547Zm7.247-.611c.008-.653-.811-1.352-1.967-1.438-1.981-.147-3.21.524-3.21,1.9,0,1.1.784,1.783,2.189,1.525C3485.221,523.709,3487.01,522.924,3487.022,521.937Z" transform="translate(-3326.216 -482.625)" fill="#2a333a"/>
    <path id="Tracciato_50" data-name="Tracciato 50" d="M3068.6,338.313v6.948l-4.052-7.038h-1.057v8.927h1.057v-6.994l4.052,7.023h1.058v-8.866Z" transform="translate(-2957.742 -327.509)" fill="#2a333a"/>
  </g>
</svg>
