<svg id="ICONA_MODIFICA" data-name="ICONA MODIFICA" xmlns="http://www.w3.org/2000/svg" xmlns:xlink="http://www.w3.org/1999/xlink" width="54" height="50.975" viewBox="0 0 54 50.975">
  <defs>
    <clipPath id="clip-path">
      <rect id="Rettangolo_469" data-name="Rettangolo 469" width="27.55" height="28.957" transform="translate(0 -0.001)" fill="none"/>
    </clipPath>
  </defs>
  <text id="Modifica" transform="translate(27 46.975)" fill="#818387" font-size="14" font-family="AcuminPro-Regular, Acumin Pro"><tspan x="-26.579" y="0">Modifica</tspan></text>
  <g id="Raggruppa_2636" data-name="Raggruppa 2636" transform="translate(13 0.001)">
    <g id="Raggruppa_2636-2" data-name="Raggruppa 2636" clip-path="url(#clip-path)">
      <path id="Tracciato_3903" data-name="Tracciato 3903" d="M20.314,20.805v5.6a.775.775,0,0,1-.755.786H2.463a.774.774,0,0,1-.755-.788V2.553a.774.774,0,0,1,.753-.786h12.6V5.2A1.693,1.693,0,0,0,16.72,6.921h3.594v3.6L22,8.647l.025-.029V6.4a1.958,1.958,0,0,0-.013-.2.893.893,0,0,0,.013-.155.883.883,0,0,0-.381-.736,1.635,1.635,0,0,0-.136-.153L16.737.472c-.046-.044-.094-.085-.143-.124A.844.844,0,0,0,15.916,0a.742.742,0,0,0-.134.012A1.813,1.813,0,0,0,15.6,0H2.46A2.517,2.517,0,0,0,0,2.555V26.4a2.518,2.518,0,0,0,2.46,2.558h17.1A2.517,2.517,0,0,0,22.02,26.4V18.9l-1.681,1.872Z" fill="#61a4d7"/>
      <path id="Tracciato_3904" data-name="Tracciato 3904" d="M27.132,9.5h0L25.926,8.378a1.316,1.316,0,0,0-1.86.062h0l-.918.982,3.13,2.923.918-.982a1.316,1.316,0,0,0-.063-1.86" fill="#61a4d7"/>
      <path id="Tracciato_3905" data-name="Tracciato 3905" d="M15.355,17.737,14.391,21.9l4.09-1.242,7.487-8.015-3.13-2.923Z" fill="#61a4d7"/>
      <rect id="Rettangolo_467" data-name="Rettangolo 467" width="8.491" height="1.574" transform="translate(4.591 6.193)" fill="#61a4d7"/>
      <rect id="Rettangolo_468" data-name="Rettangolo 468" width="8.491" height="1.574" transform="translate(4.591 10.916)" fill="#61a4d7"/>
    </g>
  </g>
</svg>
