<svg id="Raggruppa_2639" data-name="Raggruppa 2639" xmlns="http://www.w3.org/2000/svg" width="25.792" height="28.996" viewBox="0 0 25.792 28.996">
  <path id="Tracciato_3914" data-name="Tracciato 3914" d="M81.473,8.441h4.994a1.048,1.048,0,1,1,0,2.1H81.473a1.048,1.048,0,1,1,0-2.1m0,3.875H92.056a1.048,1.048,0,1,1,0,2.1H81.473a1.048,1.048,0,1,1,0-2.1M78.455,0H88.93l.013,0h.026l.013,0h.011l.013,0h.013l.013,0,.011,0,.013,0h.013l.011,0,.013,0,.011,0,.013,0,.011,0,.013,0,.011,0,.013,0,.011,0,.013,0,.011,0,.011,0,.013,0,.011,0,.011,0,.011,0,.013,0,.011,0,.011,0L89.3.085l.011,0,.011,0L89.337.1l.011,0,.011.007.011,0,.011.007.009,0L89.4.133l.011.007.011.007.009.007.011.007.009.007.011.007.011.007.009.007.009.007L89.5.2l.009.007.009.007.011.009.009.007.009.009.009.007.009.009.009.009.009.007.009.009L89.6.286,89.608.3l8.559,8.559a.129.129,0,0,1,.018.017l.017.02a.129.129,0,0,1,.017.018l.015.02.015.02.015.02a.117.117,0,0,0,.015.02.191.191,0,0,1,.013.022l.013.02a.188.188,0,0,1,.013.022c0,.007.007.013.011.02l.013.022a.1.1,0,0,0,.011.022.223.223,0,0,1,.009.022c0,.007.007.015.011.022s.007.015.009.022a.091.091,0,0,1,.009.022c0,.009.007.015.009.024s0,.013.007.022a.091.091,0,0,1,.009.022l.007.024c0,.007,0,.015,0,.022s0,.018.007.024,0,.015,0,.024,0,.015,0,.022a.077.077,0,0,0,0,.024c0,.009,0,.015,0,.024s0,.015,0,.024,0,.015,0,.022,0,.017,0,.024V25.615A3.388,3.388,0,0,1,95.074,29H76.53a.979.979,0,0,1,0-1.958l18.544-.015a1.415,1.415,0,0,0,1.408-1.407V10.537H91.3a3.388,3.388,0,0,1-3.381-3.381V1.974H78.455a1.414,1.414,0,0,0-1.407,1.408V14.208a.987.987,0,0,1-1.974,0V3.381A3.389,3.389,0,0,1,78.455,0" transform="translate(-72.663)" fill="#61a4d7"/>
  <path id="Tracciato_3915" data-name="Tracciato 3915" d="M17.762,510.272H2.122A2.129,2.129,0,0,0,0,512.394v5.027a2.129,2.129,0,0,0,2.122,2.122h15.64a2.129,2.129,0,0,0,2.122-2.122v-5.027a2.129,2.129,0,0,0-2.122-2.122" transform="translate(0 -493.887)" fill="#61a4d7"/>
  <path id="Tracciato_3916" data-name="Tracciato 3916" d="M147.662,573.553a2.227,2.227,0,0,1-.811-.136,1.461,1.461,0,0,1-.577-.4,1.566,1.566,0,0,1-.323-.671l.911-.4a1,1,0,0,0,.326.5.838.838,0,0,0,.531.168.787.787,0,0,0,.5-.142.485.485,0,0,0,.179-.4v-.245a.431.431,0,0,0-.1-.3.73.73,0,0,0-.271-.19c-.422-.179-.833-.249-1.257-.459a1.285,1.285,0,0,1-.485-.439,1.42,1.42,0,0,1-.2-.8v-.142a1.614,1.614,0,0,1,.194-.811,1.288,1.288,0,0,1,.575-.512,2.142,2.142,0,0,1,.914-.177,1.82,1.82,0,0,1,.715.131,1.3,1.3,0,0,1,.516.391,1.614,1.614,0,0,1,.306.643l-.861.411a1.063,1.063,0,0,0-.3-.472.636.636,0,0,0-.435-.162.772.772,0,0,0-.481.131.438.438,0,0,0-.173.367v.179a.483.483,0,0,0,.111.33.8.8,0,0,0,.28.2c.448.2.833.234,1.3.487a1.227,1.227,0,0,1,.448.433,1.411,1.411,0,0,1,.179.758v.234a1.545,1.545,0,0,1-.2.811,1.268,1.268,0,0,1-.584.514,2.229,2.229,0,0,1-.924.175m-7.9-2.806-1.34-2.7h1.045l.767,1.694.734-1.694h1.049l-1.324,2.666L142.1,573.5h-1.051l-.826-1.783-.8,1.783h-1.047Zm2.784-2.7h.979v4.511h2.022v.942h-3Z" transform="translate(-133.93 -549.751)" fill="#fff"/>
</svg>
