<svg id="ICONA_CANCELLA" data-name="ICONA CANCELLA" xmlns="http://www.w3.org/2000/svg" xmlns:xlink="http://www.w3.org/1999/xlink" width="54" height="50" viewBox="0 0 54 50">
  <defs>
    <clipPath id="clip-path">
      <rect id="Rettangolo_329" data-name="Rettangolo 329" width="25.006" height="27.586" fill="#61a4d7"/>
    </clipPath>
  </defs>
  <g id="Raggruppa_2627" data-name="Raggruppa 2627" transform="translate(14)">
    <g id="Raggruppa_2626" data-name="Raggruppa 2626" clip-path="url(#clip-path)">
      <path id="Tracciato_3887" data-name="Tracciato 3887" d="M22.046,3.936H17.062V2.961A2.964,2.964,0,0,0,14.1,0H10.9a2.964,2.964,0,0,0-2.96,2.96v.976H2.96A2.964,2.964,0,0,0,0,6.9V8.863a.992.992,0,0,0,.992.992H2.057L3.492,25.11a2.721,2.721,0,0,0,2.72,2.477H18.793a2.721,2.721,0,0,0,2.72-2.477L22.948,9.855h1.065a.992.992,0,0,0,.992-.992V6.9a2.964,2.964,0,0,0-2.96-2.96M9.928,2.964a.977.977,0,0,1,.975-.975h3.2a.977.977,0,0,1,.975.975v.975H9.931V2.964ZM1.984,6.9a.977.977,0,0,1,.975-.975H22.046a.977.977,0,0,1,.975.975v.975H1.988V6.9ZM19.536,24.927a.743.743,0,0,1-.742.676H6.212a.743.743,0,0,1-.742-.676L4.052,9.859h16.9Z" transform="translate(0 -0.001)" fill="#61a4d7"/>
      <path id="Tracciato_3888" data-name="Tracciato 3888" d="M183.777,201.428a.992.992,0,0,0,.992-.992V191.5a.992.992,0,0,0-1.984,0v8.939a.99.99,0,0,0,.992.992" transform="translate(-171.276 -178.51)" fill="#61a4d7"/>
      <path id="Tracciato_3889" data-name="Tracciato 3889" d="M110.508,201.4a.69.69,0,0,0,.083,0,.992.992,0,0,0,.905-1.072l-.759-8.939a.992.992,0,1,0-1.978.166l.759,8.939a.99.99,0,0,0,.989.909" transform="translate(-101.908 -178.483)" fill="#61a4d7"/>
      <path id="Tracciato_3890" data-name="Tracciato 3890" d="M245.656,201.4a.717.717,0,0,0,.083,0,.992.992,0,0,0,.989-.909l.759-8.939a.992.992,0,0,0-.906-1.072.982.982,0,0,0-1.072.906l-.759,8.939a.992.992,0,0,0,.906,1.072" transform="translate(-229.337 -178.483)" fill="#61a4d7"/>
    </g>
  </g>
  <text id="Cancella" transform="translate(27 46)" fill="#818387" font-size="14" font-family="AcuminPro-Regular, Acumin Pro"><tspan x="-26.684" y="0">Cancella</tspan></text>
</svg>
