<svg id="ICONA_NUOVA_PRATICA" data-name="ICONA NUOVA PRATICA" xmlns="http://www.w3.org/2000/svg" xmlns:xlink="http://www.w3.org/1999/xlink" width="130.99" height="114.131" viewBox="0 0 130.99 114.131">
  <defs>
    <clipPath id="clip-path">
      <rect id="Rettangolo_940" data-name="Rettangolo 940" width="40.284" height="72.642" transform="translate(0 0.001)" fill="none"/>
    </clipPath>
  </defs>
  <g id="Raggruppa_2651" data-name="Raggruppa 2651" transform="translate(-1254.505 -175)">
    <path id="Tracciato_3925" data-name="Tracciato 3925" d="M60.5,0C76.409,0,80.471,10.695,91.455,19.764c11.7,9.663,29.552,18.436,29.552,33.993,0,17.962-9.915,33.867-25.3,43.725-9.794,6.277-7.492,12.649-20.691,12.649C41.6,110.131,0,83.447,0,53.757S27.088,0,60.5,0Z" transform="translate(1254.505 175)" fill="#61a4d7" opacity="0.371"/>
    <path id="Tracciato_3926" data-name="Tracciato 3926" d="M62.244,0C78.607,0,82.786,11,94.085,20.333c12.041,9.941,30.4,18.966,30.4,34.971,0,18.479-10.2,34.841-26.026,44.983C88.385,106.744,90.754,113.3,77.175,113.3,42.8,113.3,0,85.847,0,55.3S27.867,0,62.244,0Z" transform="translate(1261.008 175.832)" fill="#61a4d7" opacity="0.156"/>
  </g>
  <g id="ICONA_NUOVA_PRATICA-2" data-name="ICONA NUOVA PRATICA" transform="translate(45.848 20.64)">
    <g id="Raggruppa_2662" data-name="Raggruppa 2662" clip-path="url(#clip-path)">
      <path id="Tracciato_3963" data-name="Tracciato 3963" d="M21.636,28.027a3.4,3.4,0,1,0,1.23,1.494,3.4,3.4,0,0,0-1.23-1.494" fill="#fff"/>
      <path id="Tracciato_3964" data-name="Tracciato 3964" d="M15.518,17.165a5.085,5.085,0,1,0,7.059-1.371,5.087,5.087,0,0,0-7.059,1.371" fill="#fff"/>
      <path id="Tracciato_3965" data-name="Tracciato 3965" d="M38.947,63.107a5.945,5.945,0,0,0,1.337-3.774,6.623,6.623,0,0,0-.075-.97,6.97,6.97,0,0,0-1.68-3.519A8.133,8.133,0,0,0,36,52.912a8.29,8.29,0,0,0-.928-2.335,9.775,9.775,0,0,0-3.4-3.392,11,11,0,0,0-3.736-1.406,5.582,5.582,0,0,0-.212-.731l-.176-.488h.9a4.459,4.459,0,0,0,3.525-1.744c.034-.045.068-.09.1-.136l3.091,3.06a2.5,2.5,0,0,0,1.775.737,2.567,2.567,0,0,0,1.735-.687,2.5,2.5,0,0,0,.793-1.841V30.481a2.539,2.539,0,0,0-.53-1.545l-6.649-8.567a37.576,37.576,0,0,0-9.616-19.1,4.054,4.054,0,0,0-4.5-.951,3.977,3.977,0,0,0-1.367.951,37.592,37.592,0,0,0-9.621,19.1L.531,28.932A2.558,2.558,0,0,0,0,30.481V43.95a2.51,2.51,0,0,0,1.174,2.136,2.575,2.575,0,0,0,1.36.393A2.513,2.513,0,0,0,4.3,45.744l3.09-3.061a4.514,4.514,0,0,0,.638.723,4.431,4.431,0,0,0,2.987,1.156h.9l-.176.487a5.883,5.883,0,0,0-.286,1.124,10.452,10.452,0,0,0-1.828,1.1,8.094,8.094,0,0,0-3.131.42A7.965,7.965,0,0,0,3.27,49.748,6.714,6.714,0,0,0,2.17,51.3a6.058,6.058,0,0,0-.6,1.828A5.9,5.9,0,0,0,1.5,54a5.477,5.477,0,0,0,.605,2.495,5.681,5.681,0,0,0,.588.9,10.362,10.362,0,0,0-1.334,1.752A9.437,9.437,0,0,0,.11,62.594H.1A8.838,8.838,0,0,0,0,63.972,8.47,8.47,0,0,0,3.989,71.18,9.685,9.685,0,0,0,9.1,72.64a10.6,10.6,0,0,0,4.393-.891A10.934,10.934,0,0,0,16.292,70a10.378,10.378,0,0,0,4.1.852h.056a10.161,10.161,0,0,0,5.264-1.463,8.423,8.423,0,0,0,6.6,3.255h.025a7.661,7.661,0,0,0,2.8-.528,6.868,6.868,0,0,0,3.139-2.476A6.7,6.7,0,0,0,39.466,65.8a7.15,7.15,0,0,0-.07-1,7.6,7.6,0,0,0-.449-1.691M19.734,2.531a1.507,1.507,0,0,1,.586.118,1.456,1.456,0,0,1,.5.354A35.023,35.023,0,0,1,29.85,21.11a1.266,1.266,0,0,0,.247.562l6.838,8.81.014,13.465L32.5,39.541a1.268,1.268,0,0,0-2.153.769,1.912,1.912,0,0,1-.618,1.223,1.972,1.972,0,0,1-1.287.494H26.53a4.759,4.759,0,0,0-1.085-1.232,4.315,4.315,0,0,0-1.076-.632,3.43,3.43,0,0,0-1.25-.249H16.355a3.425,3.425,0,0,0-1.248.25,4.374,4.374,0,0,0-1.538,1.059,4.923,4.923,0,0,0-.618.8H11.023a2.039,2.039,0,0,1-.7-.13v0a1.911,1.911,0,0,1-1.2-1.587,1.266,1.266,0,0,0-1.39-1.129,1.273,1.273,0,0,0-.76.36L2.534,43.951l0-13.466,6.837-8.813a1.247,1.247,0,0,0,.248-.563A35.057,35.057,0,0,1,18.649,3a1.437,1.437,0,0,1,.5-.352,1.5,1.5,0,0,1,.583-.117M10.243,42.1l-.066.171,0,0Zm3.687,4.875a3.157,3.157,0,0,1,.2-1.068L14.9,43.75a2.288,2.288,0,0,1,.7-.981,1.7,1.7,0,0,1,.44-.256.836.836,0,0,1,.306-.069H23.1a.883.883,0,0,1,.32.071,1.843,1.843,0,0,1,.654.456,2.255,2.255,0,0,1,.488.785l.776,2.154a3.172,3.172,0,0,1,.2,1.064,1.893,1.893,0,0,1-.072.541,1.126,1.126,0,0,1-.112.264.425.425,0,0,1-.142.149.349.349,0,0,1-.23.048H14.472a.508.508,0,0,1-.188-.035.4.4,0,0,1-.092-.065.833.833,0,0,1-.171-.3,1.949,1.949,0,0,1-.088-.6l-.4,0,0,0ZM2.217,62.92h0l.395.062a6.935,6.935,0,0,1,.923-2.523,7.933,7.933,0,0,1,1.791-2.053,1.267,1.267,0,0,0-.035-1.99,3.266,3.266,0,0,1-.929-1.091A2.859,2.859,0,0,1,4.041,54a2.955,2.955,0,0,1,.037-.479,3.562,3.562,0,0,1,.538-1.394A5,5,0,0,1,6.487,50.45a5.57,5.57,0,0,1,3.36-.609,1.241,1.241,0,0,0,.984-.29,7.806,7.806,0,0,1,.986-.7c.039.08.082.156.127.23a2.87,2.87,0,0,0,2.544,1.432h10.5a2.963,2.963,0,0,0,1.35-.312,2.911,2.911,0,0,0,.8-.6,3.31,3.31,0,0,0,.72-1.229l.006-.019a8.422,8.422,0,0,1,3.51,1.727,6.9,6.9,0,0,1,1.518,1.785,5.63,5.63,0,0,1,.736,2.111,1.266,1.266,0,0,0,.8,1.01,5.731,5.731,0,0,1,2.208,1.537,4.443,4.443,0,0,1,1.073,2.243,3.724,3.724,0,0,1,.046.578,3.38,3.38,0,0,1-.3,1.418,3.542,3.542,0,0,1-.858,1.168,1.256,1.256,0,0,0-.265,1.543,5,5,0,0,1,.556,1.686,4.646,4.646,0,0,1,.047.646A4.176,4.176,0,0,1,34.99,69.35a4.691,4.691,0,0,1-2.677.752,5.874,5.874,0,0,1-5.139-3.094,1.266,1.266,0,0,0-1.712-.536,1.332,1.332,0,0,0-.213.141,7.6,7.6,0,0,1-4.789,1.7c-.027,0-.054,0-.082,0a7.711,7.711,0,0,1-3.706-.95,1.273,1.273,0,0,0-1.52.223,8.343,8.343,0,0,1-2.674,1.834,8.2,8.2,0,0,1-3.286.682,6.729,6.729,0,0,1-4.817-1.817,5.938,5.938,0,0,1-1.842-4.309,6.451,6.451,0,0,1,.077-.992l-.395-.061Z" fill="#fff"/>
    </g>
  </g>
</svg>
