<svg id="ICONA_GESTIONE_FILE" data-name="ICONA GESTIONE FILE" xmlns="http://www.w3.org/2000/svg" xmlns:xlink="http://www.w3.org/1999/xlink" width="130.99" height="114.131" viewBox="0 0 130.99 114.131">
  <defs>
    <clipPath id="clip-path">
      <rect id="Rettangolo_941" data-name="Rettangolo 941" width="72" height="68.69" fill="none"/>
    </clipPath>
  </defs>
  <g id="Raggruppa_2644" data-name="Raggruppa 2644" transform="translate(-1254.505 -175)">
    <path id="Tracciato_3925" data-name="Tracciato 3925" d="M60.5,0C76.409,0,80.471,10.695,91.455,19.764c11.7,9.663,29.552,18.436,29.552,33.993,0,17.962-9.915,33.867-25.3,43.725-9.794,6.277-7.492,12.649-20.691,12.649C41.6,110.131,0,83.447,0,53.757S27.088,0,60.5,0Z" transform="translate(1254.505 175)" fill="#61a4d7" opacity="0.371"/>
    <path id="Tracciato_3926" data-name="Tracciato 3926" d="M62.244,0C78.607,0,82.786,11,94.085,20.333c12.041,9.941,30.4,18.966,30.4,34.971,0,18.479-10.2,34.841-26.026,44.983C88.385,106.744,90.754,113.3,77.175,113.3,42.8,113.3,0,85.847,0,55.3S27.867,0,62.244,0Z" transform="translate(1261.008 175.832)" fill="#61a4d7" opacity="0.156"/>
  </g>
  <g id="ICONA_GESTIONE_FILE-2" data-name="ICONA GESTIONE FILE" transform="translate(29.495 22.721)">
    <g id="Raggruppa_2665" data-name="Raggruppa 2665" transform="translate(0 0)" clip-path="url(#clip-path)">
      <path id="Tracciato_3966" data-name="Tracciato 3966" d="M54.028,21.632A1.315,1.315,0,0,0,54,20.639a25.441,25.441,0,0,0-1.185-2.367L54.5,16.588a3.951,3.951,0,0,0,0-5.6L50.552,7.04a3.956,3.956,0,0,0-5.6,0L43.267,8.721a25.318,25.318,0,0,0-5.751-2.383V3.961A3.968,3.968,0,0,0,33.559,0H27.975a3.967,3.967,0,0,0-3.958,3.961V6.338a25.318,25.318,0,0,0-5.751,2.383L16.588,7.04a3.971,3.971,0,0,0-5.6,0l-3.95,3.948A4,4,0,0,0,6.166,12.3a3.959,3.959,0,0,0,.871,4.29L8.72,18.272a25.262,25.262,0,0,0-2.362,5.67l-.022.079H3.961A3.966,3.966,0,0,0,0,27.978v5.583A3.907,3.907,0,0,0,.31,35.1a3.948,3.948,0,0,0,3.651,2.422H6.338a25.22,25.22,0,0,0,2.383,5.752L7.036,44.96a4,4,0,0,0-.869,1.311,3.959,3.959,0,0,0,.871,4.29l3.95,3.951a3.965,3.965,0,0,0,5.6,0l1.684-1.684a25.2,25.2,0,0,0,5.751,2.383v2.377a3.956,3.956,0,0,0,3.961,3.96h5.584a3.954,3.954,0,0,0,3.956-3.97V55.2a25.233,25.233,0,0,0,3.987-1.471l.25-.121-.014-.026a1.32,1.32,0,0,0,.436-.587Zm-3.907-4.194a1.892,1.892,0,0,0-.079,1.2l-.067.041.278.46a23.161,23.161,0,0,1,1.1,2.081L39.9,51.547a22.359,22.359,0,0,1-3.589,1.232l-.41.12v.037a1.9,1.9,0,0,0-1.034,1.688v2.955a1.278,1.278,0,0,1-.1.508,1.335,1.335,0,0,1-.478.58,1.3,1.3,0,0,1-.733.225h-5.58a1.307,1.307,0,0,1-1.088-.582,1.285,1.285,0,0,1-.223-.733V54.621a1.9,1.9,0,0,0-1.438-1.838,22.626,22.626,0,0,1-6.095-2.528,1.9,1.9,0,0,0-.985-.274,1.879,1.879,0,0,0-.715.141,1.826,1.826,0,0,0-.625.414l-2.091,2.091a1.311,1.311,0,0,1-.921.384,1.515,1.515,0,0,1-.5-.091,1.327,1.327,0,0,1-.434-.29L8.907,48.678a1.249,1.249,0,0,1-.284-.435,1.314,1.314,0,0,1,.285-1.423L11,44.735a1.864,1.864,0,0,0,.415-.626,1.91,1.91,0,0,0-.132-1.7,22.52,22.52,0,0,1-2.526-6.1,1.944,1.944,0,0,0-.666-1.029,1.915,1.915,0,0,0-1.177-.41H3.955a1.314,1.314,0,0,1-1.307-1.312v-5.58a1.31,1.31,0,0,1,.1-.507,1.349,1.349,0,0,1,.479-.581,1.3,1.3,0,0,1,.733-.224H6.915a1.9,1.9,0,0,0,1.842-1.436c.046-.19.1-.381.154-.575a22.547,22.547,0,0,1,2.375-5.525,1.931,1.931,0,0,0,.271-.985A1.9,1.9,0,0,0,11,16.812l-2.094-2.1a1.313,1.313,0,0,1,0-1.856l3.949-3.949a1.317,1.317,0,0,1,1.856,0L16.806,11a1.9,1.9,0,0,0,2.324.287,22.572,22.572,0,0,1,6.089-2.529,1.9,1.9,0,0,0,1.443-1.843V3.959a1.314,1.314,0,0,1,1.314-1.312h5.587A1.314,1.314,0,0,1,34.87,3.961V6.915a1.9,1.9,0,0,0,1.441,1.843A22.587,22.587,0,0,1,42.4,11.286a1.928,1.928,0,0,0,1.693.13A1.866,1.866,0,0,0,44.727,11l2.091-2.092a1.306,1.306,0,0,1,1.426-.282,1.275,1.275,0,0,1,.433.284l3.949,3.951a1.27,1.27,0,0,1,.287.434,1.291,1.291,0,0,1,0,.987,1.254,1.254,0,0,1-.29.433l-2.09,2.1a1.905,1.905,0,0,0-.411.623" transform="translate(0 0.001)" fill="#fff"/>
      <path id="Tracciato_3967" data-name="Tracciato 3967" d="M29.5,15.565h-.265a13.83,13.83,0,0,0-7.313,2.251A14.11,14.11,0,0,0,16.975,23.4a13.951,13.951,0,0,0-1.411,5.846V29.5A13.952,13.952,0,0,0,29.5,43.44h.262a13.783,13.783,0,0,0,5.267-1.146,14.051,14.051,0,0,0,5.983-4.955l.152-.223,0,0a13.824,13.824,0,0,0,2.273-7.359V29.5A13.934,13.934,0,0,0,29.5,15.565M40.789,29.5v.215a11.058,11.058,0,0,1-.928,4.255,11.391,11.391,0,0,1-3.9,4.772l-.122.083a11.159,11.159,0,0,1-6.112,1.961h-.237A11.288,11.288,0,0,1,18.212,29.5v-.213a11.264,11.264,0,0,1,1.144-4.714,11.469,11.469,0,0,1,4.019-4.536,11.193,11.193,0,0,1,5.9-1.82h.228A11.285,11.285,0,0,1,40.789,29.5" transform="translate(1.267 1.267)" fill="#fff"/>
      <path id="Tracciato_3968" data-name="Tracciato 3968" d="M68.16,11.133a3.609,3.609,0,0,0-1.487-1.267l0-.009-.189-.071-.062-.025-4.4-1.66a3.631,3.631,0,0,0-1.288-.237A3.691,3.691,0,0,0,58.68,8.5a3.654,3.654,0,0,0-1.371,1.732l-2.271,6.006a1.3,1.3,0,0,0-.059.211,1.306,1.306,0,0,0-.268.436l-14.57,38.6a3.6,3.6,0,0,0-.236,1.281,3.979,3.979,0,0,0,.029.475c.01.074.023.148.037.223a1.907,1.907,0,0,0-.228.271,1.866,1.866,0,0,0-.329,1.06,1.927,1.927,0,0,0,.026.306l1.211,7.386a1.9,1.9,0,0,0,.234.645,1.844,1.844,0,0,0,.7.681,1.869,1.869,0,0,0,2.1-.182l5.636-4.612.15-.127a1.872,1.872,0,0,0,.522-.672,1.9,1.9,0,0,0,.165-.848c.076-.057.15-.116.225-.181a3.651,3.651,0,0,0,1.009-1.456L65.957,21.127a1.469,1.469,0,0,0,.059-.209,1.343,1.343,0,0,0,.268-.434l2.27-6a3.6,3.6,0,0,0,.238-1.294,3.686,3.686,0,0,0-.633-2.055m-5.147,10.3L48.9,58.793a.98.98,0,0,1-.276.4,1.043,1.043,0,0,1-.416.222L42.723,57.34a1.065,1.065,0,0,1-.169-.441c0-.042-.008-.085-.008-.125a1.049,1.049,0,0,1,.064-.353L56.719,19.059ZM46.577,61.825l-3.536,2.9L42.3,60.209Zm19.4-48.031-1.707,4.519L57.98,15.933l1.8-4.767a.986.986,0,0,1,.375-.475,1.029,1.029,0,0,1,.928-.115l4.4,1.661a1,1,0,0,1,.474.378,1.018,1.018,0,0,1,.177.575.932.932,0,0,1-.064.347l-.1.252Z" transform="translate(3.207 0.64)" fill="#fff"/>
    </g>
  </g>
</svg>
