<svg id="Raggruppa_6" data-name="Raggruppa 6" xmlns="http://www.w3.org/2000/svg" xmlns:xlink="http://www.w3.org/1999/xlink" width="12.723" height="18.015" viewBox="0 0 12.723 18.015">
  <defs>
    <clipPath id="clip-path">
      <rect id="Rettangolo_20" data-name="Rettangolo 20" width="12.723" height="18.015" fill="#615f5f"/>
    </clipPath>
  </defs>
  <g id="Raggruppa_6-2" data-name="Raggruppa 6" clip-path="url(#clip-path)">
    <path id="Tracciato_2844" data-name="Tracciato 2844" d="M11.2,7.393V4.843a4.843,4.843,0,0,0-9.686,0v2.55A1.779,1.779,0,0,0,0,9.152v7.085a1.778,1.778,0,0,0,1.778,1.778h9.167a1.778,1.778,0,0,0,1.778-1.778V9.152A1.779,1.779,0,0,0,11.2,7.393M4,2.486A3.333,3.333,0,0,1,9.7,4.843V7.374H3.028V4.843A3.312,3.312,0,0,1,4,2.486m3.167,10.6v1.663H5.552V13.085a1.33,1.33,0,1,1,1.619,0" fill="#615f5f"/>
  </g>
</svg>
