<svg xmlns="http://www.w3.org/2000/svg" xmlns:xlink="http://www.w3.org/1999/xlink" width="209.446" height="76.24" viewBox="0 0 209.446 76.24">
  <defs>
    <filter id="Rettangolo_6" x="0" y="0" width="209.446" height="76.24" filterUnits="userSpaceOnUse">
      <feOffset dy="3" input="SourceAlpha"/>
      <feGaussianBlur stdDeviation="3" result="blur"/>
      <feFlood flood-opacity="0.161"/>
      <feComposite operator="in" in2="blur"/>
      <feComposite in="SourceGraphic"/>
    </filter>
  </defs>
  <g id="BUTTON_APP_STORE" data-name="BUTTON APP STORE" transform="translate(9 6)">
    <g transform="matrix(1, 0, 0, 1, -9, -6)" filter="url(#Rettangolo_6)">
      <rect id="Rettangolo_6-2" data-name="Rettangolo 6" width="191.446" height="58.24" rx="8" transform="translate(9 6)" fill="#fff"/>
    </g>
    <g id="Raggruppa_6" data-name="Raggruppa 6" transform="translate(14.666 10.57)">
      <path id="Tracciato_6" data-name="Tracciato 6" d="M664.946,272.7c-.024-3.623,1.819-6.643,4.263-7.258A10.252,10.252,0,0,0,661.137,262a5.77,5.77,0,0,0-2.831.786,6.421,6.421,0,0,1-6.295.041,5.771,5.771,0,0,0-2.841-.749c-4.813.032-10.251,2.825-10.2,10.646s5.573,17.71,10.386,17.678a5.862,5.862,0,0,0,3.133-.967,5.344,5.344,0,0,1,5.689-.037,5.861,5.861,0,0,0,3.145.926c3.33-.022,6.936-4.8,8.826-10.327C667.3,279.979,664.973,276.725,664.946,272.7Z" transform="translate(-638.97 -252.351)" fill="#2a333a"/>
      <path id="Tracciato_7" data-name="Tracciato 7" d="M778.378,184.711c-2.009,2.5-5.767,2.82-5.767,2.82s-.5-3.738,1.508-6.24,5.767-2.82,5.767-2.82S780.387,182.209,778.378,184.711Z" transform="translate(-757.12 -178.471)" fill="#2a333a"/>
    </g>
    <g id="Raggruppa_7" data-name="Raggruppa 7" transform="translate(59.361 9.66)">
      <path id="Tracciato_8" data-name="Tracciato 8" d="M1025.776,180.788l3.5-.023c2.557-.017,4.8,1.644,4.826,5.177.024,3.6-1.8,5.77-4.976,5.791l-3.275.021Zm1.106,10.073,2.166-.014c2.708-.018,3.981-1.83,3.961-4.852-.019-2.906-1.722-4.35-4.006-4.335l-2.182.014Z" transform="translate(-1025.776 -179.59)" fill="#2a333a"/>
      <path id="Tracciato_9" data-name="Tracciato 9" d="M1117.691,208.758c.015,2.3-.945,4.261-3.434,4.277-2.361.015-3.359-1.994-3.373-4.2-.014-2.134,1.13-4.048,3.417-4.063C1116.44,204.76,1117.676,206.411,1117.691,208.758Zm-5.761.075c.013,1.886.832,3.334,2.4,3.324,1.66-.011,2.317-1.429,2.3-3.39-.012-1.786-.809-3.126-2.383-3.116C1112.706,205.662,1111.918,206.993,1111.93,208.834Z" transform="translate(-1101.05 -200.825)" fill="#2a333a"/>
      <path id="Tracciato_10" data-name="Tracciato 10" d="M1179.089,205.359c1.041,3.675,1.648,5.858,1.867,6.94h.018c.2-.954.607-2.326,1.873-6.964l1.027-.007c1.271,4.519,1.706,6.012,1.849,6.879h.016c.177-.9.687-2.694,1.866-6.9l1.036-.007-2.387,7.986-1.091.007c-.761-2.69-1.571-5.494-1.834-6.74h-.016c-.211,1.2-.956,3.785-1.818,6.764l-1.145.008-2.341-7.955Z" transform="translate(-1160.418 -201.286)" fill="#2a333a"/>
      <path id="Tracciato_11" data-name="Tracciato 11" d="M1281.476,206.334c-.011-1.668-.03-2.161-.048-2.5l.991-.006c.019.156.059,1.016.048,1.333a2.437,2.437,0,0,1,2.388-1.507c1.4-.009,2.55.727,2.564,3l.033,5.111-1.014.007-.033-4.984c-.008-1.257-.471-2.223-1.732-2.214-1.6.011-2.2,1.259-2.188,3.036l.028,4.189-1,.006Z" transform="translate(-1251.887 -199.834)" fill="#2a333a"/>
      <path id="Tracciato_12" data-name="Tracciato 12" d="M1353.944,185.328l-.076-11.542,1-.007.076,11.542Z" transform="translate(-1315.957 -173.412)" fill="#2a333a"/>
      <path id="Tracciato_13" data-name="Tracciato 13" d="M1385.783,207c.015,2.3-.945,4.261-3.434,4.277-2.361.015-3.359-1.994-3.373-4.2-.014-2.134,1.13-4.048,3.417-4.063C1384.532,203,1385.768,204.651,1385.783,207Zm-5.761.075c.013,1.886.832,3.334,2.4,3.324,1.66-.011,2.317-1.429,2.3-3.39-.012-1.786-.809-3.126-2.383-3.116C1380.8,203.9,1380.01,205.233,1380.022,207.074Z" transform="translate(-1338.163 -199.268)" fill="#2a333a"/>
      <path id="Tracciato_14" data-name="Tracciato 14" d="M1454.814,209.024a11.422,11.422,0,0,0,.135,1.656l-.94.006a7.586,7.586,0,0,1-.122-1.333,2.379,2.379,0,0,1-2.468,1.492,2.271,2.271,0,0,1-2.511-2.4c-.007-1.111.675-2.5,3.563-2.522l1.328-.009-.005-.847c-.005-.8-.23-1.679-1.74-1.669a1.618,1.618,0,0,0-1.864,1.558l-.988.007c.123-1.364.893-2.385,2.892-2.4,1.583-.01,2.682.661,2.693,2.417Zm-.982-2.31-1.373.009c-2.12.014-2.514.877-2.509,1.676a1.484,1.484,0,0,0,1.619,1.565c1.685-.011,2.277-1.155,2.264-3.089Z" transform="translate(-1400.016 -198.874)" fill="#2a333a"/>
      <path id="Tracciato_15" data-name="Tracciato 15" d="M1522.306,172.407l.063,9.519c0,.705.013,1.521.045,2.022l-.991.006c-.02-.208-.044-.723-.048-1.264a2.226,2.226,0,0,1-2.418,1.426c-2.077.014-3.1-1.754-3.117-4.094-.015-2.263,1.133-4.167,3.3-4.181a2.219,2.219,0,0,1,2.2,1.028l-.029-4.456Zm-5.418,7.556c.014,2.106.983,3.26,2.284,3.251,1.849-.012,2.226-1.458,2.213-3.446-.016-2.405-.77-3.033-2.165-3.024C1517.782,176.753,1516.875,177.942,1516.888,179.963Z" transform="translate(-1459.213 -172.198)" fill="#2a333a"/>
      <path id="Tracciato_16" data-name="Tracciato 16" d="M1629.474,205.4c.015,2.3-.945,4.261-3.434,4.277-2.361.016-3.359-1.994-3.373-4.2-.014-2.134,1.129-4.048,3.417-4.063C1628.223,201.4,1629.459,203.051,1629.474,205.4Zm-5.761.075c.012,1.886.832,3.335,2.4,3.324,1.66-.011,2.317-1.429,2.3-3.39-.012-1.786-.809-3.126-2.383-3.116C1624.489,202.3,1623.7,203.634,1623.713,205.475Z" transform="translate(-1553.696 -197.854)" fill="#2a333a"/>
      <path id="Tracciato_17" data-name="Tracciato 17" d="M1697.177,203.605c-.011-1.668-.03-2.161-.048-2.5l.991-.006c.019.156.059,1.016.048,1.333a2.437,2.437,0,0,1,2.388-1.507c1.4-.009,2.549.727,2.564,3l.034,5.111-1.014.007-.033-4.984c-.008-1.257-.471-2.222-1.732-2.214-1.6.011-2.2,1.258-2.189,3.036l.028,4.189-1,.007Z" transform="translate(-1619.553 -197.421)" fill="#2a333a"/>
      <path id="Tracciato_18" data-name="Tracciato 18" d="M1792.478,183.574l1.337-.009-.016-2.374,1-.007.016,2.375,1.678-.011.006.861-1.678.011.035,5.327c0,.711.187,1.012.879,1.007a3.982,3.982,0,0,0,.672-.063l.005.8a3.036,3.036,0,0,1-.952.138c-1.014.007-1.592-.365-1.6-1.627l-.037-5.577-1.338.009Z" transform="translate(-1703.885 -179.961)" fill="#2a333a"/>
      <path id="Tracciato_19" data-name="Tracciato 19" d="M1840.057,170.6l.031,4.788a2.538,2.538,0,0,1,2.426-1.391c1.058-.007,2.508.52,2.523,2.831l.035,5.281-1,.007-.033-5.093c-.009-1.353-.571-2.114-1.8-2.105-1.381.009-2.149.932-2.138,2.636l.03,4.588-1,.006-.076-11.542Z" transform="translate(-1745.081 -170.596)" fill="#2a333a"/>
      <path id="Tracciato_20" data-name="Tracciato 20" d="M1907.987,203.881c0,1.829.8,3.093,2.294,3.083a2.008,2.008,0,0,0,1.994-1.472l.993-.006a2.941,2.941,0,0,1-3.046,2.356c-2.472.016-3.253-2.027-3.267-4.157-.013-1.95.923-4.112,3.282-4.128,2.431-.016,3.14,1.944,3.151,3.7,0,.02,0,.565,0,.588Zm4.4-.829c-.055-1.528-.674-2.641-2.172-2.631-1.726.011-2.12,1.619-2.2,2.66Z" transform="translate(-1805.135 -196.21)" fill="#2a333a"/>
    </g>
    <g id="Raggruppa_8" data-name="Raggruppa 8" transform="translate(59.723 27.314)">
      <path id="Tracciato_21" data-name="Tracciato 21" d="M1033.1,340.809l-1.864,5.308-2.33.015,6.171-17.694,2.882-.019,6.673,17.61-2.494.016-1.993-5.283Zm6.431-2.048c-1.713-4.629-2.654-7.088-3.045-8.431h-.025c-.422,1.5-1.436,4.492-2.766,8.469Z" transform="translate(-1028.905 -327.836)" fill="#2a333a"/>
      <path id="Tracciato_22" data-name="Tracciato 22" d="M1187.453,377.944l.044,6.647-2.212.014-.1-14.784c-.007-1.049-.014-2.139-.046-3.139l2.16-.014c.054.428.086,1.207.091,2.022a4.439,4.439,0,0,1,4.19-2.355c2.976-.02,5.154,2.46,5.179,6.374.03,4.594-2.434,7.083-5.549,7.1A3.92,3.92,0,0,1,1187.453,377.944Zm7.021-5.133c-.018-2.727-1.271-4.585-3.469-4.571-2.666.017-3.708,1.71-3.687,4.837.02,3.041.9,4.88,3.582,4.863C1193.251,377.925,1194.494,375.981,1194.473,372.812Z" transform="translate(-1167.088 -361.372)" fill="#2a333a"/>
      <path id="Tracciato_23" data-name="Tracciato 23" d="M1312.6,377.122l.044,6.647-2.212.015-.1-14.784c-.007-1.049-.014-2.139-.046-3.139l2.16-.014c.054.428.086,1.207.091,2.022a4.438,4.438,0,0,1,4.19-2.355c2.976-.02,5.154,2.46,5.18,6.374.03,4.594-2.435,7.083-5.549,7.1A3.92,3.92,0,0,1,1312.6,377.122Zm7.021-5.133c-.018-2.727-1.271-4.585-3.469-4.571-2.665.018-3.708,1.71-3.687,4.837.02,3.04.9,4.88,3.582,4.863C1318.4,377.1,1319.64,375.159,1319.619,371.99Z" transform="translate(-1277.773 -360.645)" fill="#2a333a"/>
      <path id="Tracciato_24" data-name="Tracciato 24" d="M1486.658,336.4c.493,2.114,1.948,3.248,4.506,3.232,2.753-.018,3.835-1.317,3.825-2.984-.012-1.771-.888-2.757-4.433-3.59-4.166-.983-5.62-2.4-5.636-4.88-.017-2.622,1.9-4.772,5.843-4.8,4.2-.028,5.95,2.391,6.2,4.708l-2.382.016c-.326-1.568-1.318-2.851-3.893-2.834-2.149.014-3.349.99-3.339,2.672.011,1.657,1.011,2.3,4.11,3.033,5.042,1.192,5.944,3.146,5.959,5.412.019,2.847-2.076,5.092-6.393,5.12-4.441.029-6.368-2.385-6.751-5.091Z" transform="translate(-1431.658 -323.377)" fill="#2a333a"/>
      <path id="Tracciato_25" data-name="Tracciato 25" d="M1609.3,337.271l2.225-.015-.025-3.8,2.221-.015.025,3.8,2.84-.019.012,1.813-2.84.019.049,7.536c.008,1.25.317,1.889,1.481,1.882a4.907,4.907,0,0,0,1.121-.115l.011,1.673a5.97,5.97,0,0,1-1.922.25c-2,.013-2.895-1.018-2.909-3.155l-.053-8.057-2.225.015Z" transform="translate(-1542.235 -332.282)" fill="#2a333a"/>
      <path id="Tracciato_26" data-name="Tracciato 26" d="M1696.5,369.755c.025,3.707-2.08,6.777-6.013,6.8-3.686.024-5.935-2.813-5.96-6.681-.025-3.8,2.14-6.77,6.016-6.8C1694.12,363.058,1696.478,365.718,1696.5,369.755Zm-9.685.089c.019,2.822,1.44,4.871,3.752,4.856,2.354-.016,3.664-1.977,3.645-4.9-.019-2.9-1.348-4.88-3.76-4.865S1686.8,366.907,1686.819,369.844Z" transform="translate(-1608.773 -358.494)" fill="#2a333a"/>
      <path id="Tracciato_27" data-name="Tracciato 27" d="M1812.676,366.053c-.012-1.8-.035-2.811-.048-3.5l2.178-.014c.037.361.078,1.37.086,2.626a4.55,4.55,0,0,1,4.315-2.959l.015,2.215c-2.638.1-4.325,1.485-4.3,4.738l.041,6.246-2.221.015Z" transform="translate(-1722.068 -357.723)" fill="#2a333a"/>
      <path id="Tracciato_28" data-name="Tracciato 28" d="M1883.065,368.97c.033,2.617,1.362,4.468,3.547,4.453a2.966,2.966,0,0,0,3.093-2.01l2.238-.015a5.226,5.226,0,0,1-5.387,3.883c-4.045.027-5.716-3.25-5.738-6.563-.025-3.826,1.882-6.888,5.793-6.913,4.15-.027,5.532,3.294,5.55,6.038a10.585,10.585,0,0,1-.027,1.067Zm6.838-1.611c-.039-2.116-1.115-3.81-3.314-3.8-2.263.015-3.248,1.6-3.458,3.84Z" transform="translate(-1782.377 -357.365)" fill="#2a333a"/>
    </g>
  </g>
</svg>
