<svg id="ICONA_GESTIONE_ACCESSI" data-name="ICONA GESTIONE ACCESSI" xmlns="http://www.w3.org/2000/svg" width="130.99" height="114.131" viewBox="0 0 130.99 114.131">
  <g id="Raggruppa_2645" data-name="Raggruppa 2645" transform="translate(-1254.505 -175)">
    <path id="Tracciato_3925" data-name="Tracciato 3925" d="M60.5,0C76.409,0,80.471,10.695,91.455,19.764c11.7,9.663,29.552,18.436,29.552,33.993,0,17.962-9.915,33.867-25.3,43.725-9.794,6.277-7.492,12.649-20.691,12.649C41.6,110.131,0,83.447,0,53.757S27.088,0,60.5,0Z" transform="translate(1254.505 175)" fill="#61a4d7" opacity="0.371"/>
    <path id="Tracciato_3926" data-name="Tracciato 3926" d="M62.244,0C78.607,0,82.786,11,94.085,20.333c12.041,9.941,30.4,18.966,30.4,34.971,0,18.479-10.2,34.841-26.026,44.983C88.385,106.744,90.754,113.3,77.175,113.3,42.8,113.3,0,85.847,0,55.3S27.867,0,62.244,0Z" transform="translate(1261.008 175.832)" fill="#61a4d7" opacity="0.156"/>
  </g>
  <g id="ICONA_GESTIONE_ACCESSI-2" data-name="ICONA GESTIONE ACCESSI" transform="translate(19.253 19.051)">
    <g id="Raggruppa_2664" data-name="Raggruppa 2664" transform="translate(0 0)">
      <path id="Tracciato_3927" data-name="Tracciato 3927" d="M20.763,2.636h0l0,0Z" transform="translate(35.109 4.453)" fill="#fff"/>
      <path id="Tracciato_3928" data-name="Tracciato 3928" d="M10.221,8.292v0Z" transform="translate(17.284 14.017)" fill="#fff"/>
      <path id="Tracciato_3929" data-name="Tracciato 3929" d="M23.1,7.962h0v0Z" transform="translate(39.059 13.464)" fill="#fff"/>
      <path id="Tracciato_3930" data-name="Tracciato 3930" d="M10.027,9.11Z" transform="translate(16.956 15.405)" fill="#fff"/>
      <path id="Tracciato_3931" data-name="Tracciato 3931" d="M1.018,11.932Z" transform="translate(1.721 20.177)" fill="#fff"/>
      <path id="Tracciato_3932" data-name="Tracciato 3932" d="M1.014,12.594v0Z" transform="translate(1.715 21.291)" fill="#fff"/>
      <path id="Tracciato_3933" data-name="Tracciato 3933" d="M10.617,12.352v0Z" transform="translate(17.953 20.887)" fill="#fff"/>
      <path id="Tracciato_3934" data-name="Tracciato 3934" d="M32.211,9.094Z" transform="translate(54.469 15.378)" fill="#fff"/>
      <path id="Tracciato_3935" data-name="Tracciato 3935" d="M32.8,12.337v0Z" transform="translate(55.468 20.862)" fill="#fff"/>
      <path id="Tracciato_3936" data-name="Tracciato 3936" d="M23.2,12.579v0Z" transform="translate(39.228 21.263)" fill="#fff"/>
      <path id="Tracciato_3937" data-name="Tracciato 3937" d="M2.548,53.976a5.969,5.969,0,0,1,2.145-2.6,5.848,5.848,0,0,1,3.288-1.009h4.036l1.152.832c-.005.062-.011.124-.011.186v.993a1.636,1.636,0,0,0,.5,1.176l-.323.654a1.367,1.367,0,0,0-.143.611v5.56a1.367,1.367,0,0,0,.143.611l1.079,2.18a1.377,1.377,0,0,0,1.235.767,1.385,1.385,0,0,0,1.235-.767l1.076-2.18h0a1.376,1.376,0,0,0,.143-.611v-5.56a1.376,1.376,0,0,0-.143-.611h0l-.323-.654a1.628,1.628,0,0,0,.5-1.176v-.993a1.927,1.927,0,0,0-.013-.215l1.044-.8h4.645c.1,0,.2,0,.293.008a10.5,10.5,0,0,0-.342,2.648V63.96H2.083v-7.7a5.887,5.887,0,0,1,.466-2.287M6.7,38.6a5.267,5.267,0,0,1-.03-.546V36.842a1.041,1.041,0,0,0-.928-1.033.662.662,0,0,1-.159-.132,2.535,2.535,0,0,1-.431-.7,4.714,4.714,0,0,1-.326-1.144c-.011-.065-.022-.129-.027-.2l0-.005a5.342,5.342,0,0,1-.038-.608,4.007,4.007,0,0,1,.043-.595,2.162,2.162,0,0,1,.143-.536v-.005l.019-.054.019-.048.008-.032v-.008l.038.057L6.862,34.24A1.042,1.042,0,0,0,8.713,33.4c0-.011-.075-.358-.145-.81-.035-.223-.07-.474-.1-.718s-.04-.482-.04-.67l0-.073a1.66,1.66,0,0,0,.194-.148,2.438,2.438,0,0,0,.39-.449,4.953,4.953,0,0,0,.388-.7,4.558,4.558,0,0,0,.651.409A5.337,5.337,0,0,0,11.3,30.7a4.037,4.037,0,0,0,.6.1,1.04,1.04,0,0,0,.78-1.811c-.065-.059-.126-.118-.186-.172.716.129,1.633.274,2.8.425a14.393,14.393,0,0,0,1.849.116c.735,0,1.38-.051,1.924-.1s.988-.1,1.3-.094a2.213,2.213,0,0,1,.358.024.462.462,0,0,1,.116.035.1.1,0,0,1,.051.038.729.729,0,0,1,.116.229,3.222,3.222,0,0,0,.823,1.273,3.515,3.515,0,0,0,.826.573,4.443,4.443,0,0,0,1.224.393,5.793,5.793,0,0,0,.974.081,5.151,5.151,0,0,0,.544-.027,1.04,1.04,0,0,0,.85-.675l.022-.059a1.169,1.169,0,0,0,.054.135,2.005,2.005,0,0,1,.153.479,3.847,3.847,0,0,1,.065.724,4.871,4.871,0,0,1-.04.608v.005c-.008.067-.016.132-.027.2a5.013,5.013,0,0,1-.234.912,2.827,2.827,0,0,1-.5.9.884.884,0,0,1-.172.156l-.013.008a1.038,1.038,0,0,0-.928,1.033v1.862a5.1,5.1,0,0,1-2.546,4.394L18.554,44.5l-.358.207h0c-.11.065-.229.126-.347.186v0a5.1,5.1,0,0,1-4.128.118l0,0c-.1-.038-.2-.083-.293-.132s-.215-.108-.315-.164l0,0L9.214,42.459A5.093,5.093,0,0,1,6.7,38.6m.9-9.316Zm-.522-5.829C7.764,22.887,8.52,22.319,9.1,21.9c.143-.1.272-.2.39-.28a5.655,5.655,0,0,0,.536.309,1.261,1.261,0,0,0,.562.132,1.4,1.4,0,0,0,.433-.07,1.707,1.707,0,0,0,.288-.126,2.6,2.6,0,0,0,.4-.272,6.517,6.517,0,0,0,.562-.522c.264-.269.519-.546.735-.748a2.43,2.43,0,0,1,.266-.229l.059-.043c.137-.043.323-.094.519-.137.1-.024.213-.048.318-.07a1.213,1.213,0,0,0,.126.159,1.148,1.148,0,0,0,.584.326,1.167,1.167,0,0,0,.269.03,1.5,1.5,0,0,0,.3-.032,2.4,2.4,0,0,0,.39-.118c.2-.075.4-.167.619-.258a9.568,9.568,0,0,1,1.015-.4,3.163,3.163,0,0,1,.947-.172,1.436,1.436,0,0,1,.339.038.929.929,0,0,1,.266.11c.221.132.425.253.619.366l-.005.067a1.048,1.048,0,0,0,.04.288,1.112,1.112,0,0,0,.175.363,1.462,1.462,0,0,0,.159.18,1.577,1.577,0,0,0,.231.175,3.682,3.682,0,0,0,.363.194c.213.1.449.2.708.315.382.167.807.358,1.173.557a4.551,4.551,0,0,1,.487.3,1.906,1.906,0,0,1,.307.253c.04.043.078.083.113.124a1.1,1.1,0,0,0-.118.239,1.169,1.169,0,0,0-.067.406,1.291,1.291,0,0,0,.067.412,1.518,1.518,0,0,0,.121.272,2.114,2.114,0,0,0,.253.355,4.52,4.52,0,0,0,.484.479c.256.226.533.444.791.649.183.145.355.283.5.4l0,.057a3.574,3.574,0,0,1-.043.5,11.247,11.247,0,0,1-.253,1.227c-.167.659-.377,1.337-.544,1.846-.019.057-.038.11-.054.164-.07-.008-.143-.013-.218-.024a3.2,3.2,0,0,1-.449-.1,1.62,1.62,0,0,1-.554-.293,1.165,1.165,0,0,1-.191-.207,1.219,1.219,0,0,1-.145-.291A2.952,2.952,0,0,0,22.556,28a2.255,2.255,0,0,0-.482-.466,2.34,2.34,0,0,0-.864-.374,3.8,3.8,0,0,0-.842-.083c-.482,0-.961.054-1.488.1s-1.1.091-1.736.091a12.008,12.008,0,0,1-1.585-.1c-1.913-.245-3.1-.471-3.786-.632-.344-.081-.565-.143-.689-.183a.877.877,0,0,1-.118-.04l-.011,0a1.043,1.043,0,0,0-1.343.514,1.024,1.024,0,0,0-.6-.159,1.04,1.04,0,0,0-.958.77c0,.008-.046.167-.116.39-.054.17-.124.379-.2.592-.062.159-.126.32-.191.468-.051.11-.1.213-.148.3-.035.065-.07.121-.1.161a1.073,1.073,0,0,0-.188.081,1.226,1.226,0,0,0-.32.25,1.4,1.4,0,0,0-.248.374c-.175-.487-.409-1.168-.616-1.892-.14-.487-.266-.993-.358-1.464a6.626,6.626,0,0,1-.14-1.235,1.745,1.745,0,0,1,.035-.412.6.6,0,0,1,.024-.089l0-.005a4.3,4.3,0,0,1,.388-.439c.312-.315.737-.692,1.195-1.066m6.994-3.789Zm9.424,2.9,0,0,0,0Zm.565,1.389ZM15.018,62.243Zm2.766-14.72c0,.038-.005.075-.005.116v1.173l-1.058.81-.256-.145a1.6,1.6,0,0,0-.815-.221,1.624,1.624,0,0,0-.818.221l-.274.156-1.163-.84V47.6l0-.013v-.476a7.15,7.15,0,0,0,2.252.363,7.235,7.235,0,0,0,2.174-.339ZM29.6,46.008a8.4,8.4,0,0,1,4.723-1.45H39.98l1.873,1.356a1.88,1.88,0,0,0-.051.428V47.7a1.852,1.852,0,0,0,.783,1.51l-.579,1.168a1.51,1.51,0,0,0-.156.667v7.618a1.5,1.5,0,0,0,.156.667l1.477,2.984a1.508,1.508,0,0,0,.581.627,1.506,1.506,0,0,0,1.534,0,1.508,1.508,0,0,0,.581-.627l1.477-2.984a1.51,1.51,0,0,0,.156-.667V51.046a1.51,1.51,0,0,0-.156-.667l-.579-1.168a1.852,1.852,0,0,0,.783-1.51V46.342a1.854,1.854,0,0,0-.059-.457l1.728-1.327h6.493a8.364,8.364,0,0,1,3.286.667A8.559,8.559,0,0,1,63.042,48.3a8.408,8.408,0,0,1,1.45,4.723V63.96H25.852V53.023a8.411,8.411,0,0,1,.67-3.283A8.559,8.559,0,0,1,29.6,46.008m2.581-17.152a7.709,7.709,0,0,1-.043-.791V26.409a1.042,1.042,0,0,0-.961-1.039.212.212,0,0,1-.07-.019,1.13,1.13,0,0,1-.339-.261,3.72,3.72,0,0,1-.673-1.071,7,7,0,0,1-.479-1.676c-.016-.094-.03-.188-.04-.285v-.005a7.193,7.193,0,0,1-.057-.88,5.489,5.489,0,0,1,.065-.875,3.509,3.509,0,0,1,.218-.823l0-.005.019-.054.016-.048.008-.032.019-.073v-.005l.215-1.189c.073.191.135.363.188.5.11.285.178.452.178.457a1.033,1.033,0,0,0,.135.237l2.513,3.345a1.041,1.041,0,0,0,1.851-.842c0-.019-.1-.5-.2-1.128-.048-.315-.1-.665-.132-1.006a9.158,9.158,0,0,1-.059-.958c0-.124.005-.237.013-.328l.016-.008a1.8,1.8,0,0,0,.371-.256,3.014,3.014,0,0,0,.471-.544A6.759,6.759,0,0,0,36,16.474c.043-.1.086-.2.126-.293a5.708,5.708,0,0,0,1.216.84,6.932,6.932,0,0,0,1.617.589,5.728,5.728,0,0,0,.762.129,1.04,1.04,0,0,0,.78-1.814A8.655,8.655,0,0,1,39.428,14.8c1.066.229,2.651.511,4.965.807a19.369,19.369,0,0,0,2.486.156c.988,0,1.859-.07,2.6-.137s1.359-.132,1.816-.129a3.136,3.136,0,0,1,.562.04,1.182,1.182,0,0,1,.245.073.586.586,0,0,1,.207.156,1.45,1.45,0,0,1,.226.433A4.019,4.019,0,0,0,53.57,17.79a4.324,4.324,0,0,0,1.039.721,5.581,5.581,0,0,0,1.572.5,7.362,7.362,0,0,0,1.27.108,5.7,5.7,0,0,0,.7-.035,1.04,1.04,0,0,0,.85-.675c0-.008.191-.519.441-1.281l.293,1.141,0,0,.008.03a.953.953,0,0,0,.067.172,3.1,3.1,0,0,1,.24.756,5.525,5.525,0,0,1,.1,1.063,7.2,7.2,0,0,1-.057.883v.005c-.011.1-.024.191-.038.283a7.453,7.453,0,0,1-.339,1.321,4.345,4.345,0,0,1-.753,1.359,1.436,1.436,0,0,1-.328.291.357.357,0,0,1-.143.059,1.042,1.042,0,0,0-.961,1.039v2.554a7.363,7.363,0,0,1-3.681,6.353L49,37.238l0,0-.49.283-.005,0c-.161.094-.331.183-.5.266a7.378,7.378,0,0,1-5.969.17l0,0c-.143-.057-.285-.121-.428-.191-.159-.078-.309-.156-.455-.242h0l-5.334-3.081a7.367,7.367,0,0,1-3.638-5.584m1.655-12.424ZM30.5,10.164a.726.726,0,0,1,.1-.261,5.91,5.91,0,0,1,.576-.657c.439-.447,1.031-.966,1.663-1.488.95-.78,1.994-1.561,2.793-2.145l.753-.541a7.925,7.925,0,0,0,.912.549l.008,0a1.367,1.367,0,0,0,.592.137,1.5,1.5,0,0,0,.474-.078,1.8,1.8,0,0,0,.331-.145,3.256,3.256,0,0,0,.484-.331,8.84,8.84,0,0,0,.737-.689c.355-.363.71-.745,1.017-1.033a4.01,4.01,0,0,1,.4-.344,1.189,1.189,0,0,1,.126-.086l.032-.016,0,0c.207-.067.484-.143.772-.207.245-.057.5-.108.735-.153l.016.04a1.155,1.155,0,0,0,.226.344,1.235,1.235,0,0,0,.242.194,1.113,1.113,0,0,0,.363.143,1.285,1.285,0,0,0,.285.032,1.638,1.638,0,0,0,.336-.038,3.139,3.139,0,0,0,.479-.145c.264-.1.533-.221.829-.35a15.041,15.041,0,0,1,1.429-.557,4.867,4.867,0,0,1,1.413-.256,2.261,2.261,0,0,1,.557.065,1.713,1.713,0,0,1,.476.2c.385.234.74.441,1.068.627a1.065,1.065,0,0,0-.043.3,1.088,1.088,0,0,0,.04.293,1.152,1.152,0,0,0,.18.374,1.594,1.594,0,0,0,.167.188,1.735,1.735,0,0,0,.264.2,3.86,3.86,0,0,0,.455.242c.28.135.6.274.958.428.527.229,1.117.492,1.639.775a7.5,7.5,0,0,1,.705.428,2.956,2.956,0,0,1,.479.4c.145.153.266.293.369.42l-.067.073a1.291,1.291,0,0,0-.3.823,1.423,1.423,0,0,0,.073.447,1.778,1.778,0,0,0,.135.3,2.649,2.649,0,0,0,.3.425,5.931,5.931,0,0,0,.627.619c.339.3.713.592,1.068.875.3.239.592.471.81.665a1.567,1.567,0,0,1,.019.269,5.593,5.593,0,0,1-.062.735,16.944,16.944,0,0,1-.353,1.722c-.234.918-.525,1.854-.756,2.556-.062.188-.118.358-.17.506a5.544,5.544,0,0,1-.624-.054,4.447,4.447,0,0,1-.681-.159,2.6,2.6,0,0,1-.888-.474,1.989,1.989,0,0,1-.328-.358A1.965,1.965,0,0,1,54.5,15.5a3.565,3.565,0,0,0-.517-.977,2.7,2.7,0,0,0-.576-.56,2.891,2.891,0,0,0-1.041-.452,4.816,4.816,0,0,0-1.071-.1c-.627,0-1.281.073-2.007.137s-1.52.129-2.411.129a17.392,17.392,0,0,1-2.22-.14c-2.632-.336-4.271-.651-5.231-.875-.479-.113-.791-.2-.971-.258-.091-.03-.151-.051-.18-.062l-.024-.008h0a1.036,1.036,0,0,0-1.359.546,1.7,1.7,0,0,0-.126.616,1.039,1.039,0,0,0-1.967.121c0,.005-.059.215-.159.53-.073.237-.17.527-.28.829-.086.226-.178.457-.274.673-.07.161-.145.312-.218.444a2.26,2.26,0,0,1-.242.374,1.346,1.346,0,0,0-.3.118,1.394,1.394,0,0,0-.342.266,1.626,1.626,0,0,0-.309.5,2.586,2.586,0,0,0-.161.667c-.013.1-.022.2-.027.307l-.151-.2c-.027-.07-.067-.17-.116-.3-.234-.619-.686-1.859-1.074-3.21-.194-.675-.371-1.38-.5-2.04a9.9,9.9,0,0,1-.2-1.765,3.131,3.131,0,0,1,.059-.649M44.937,1.894h0m1.394,42.494-.573-.331a1.86,1.86,0,0,0-1.854,0h0l-.592.342-1.956-1.415v-3.06a9.4,9.4,0,0,0,6.9.019L48.142,41.1l0,.005,0,.075V43Zm25.387,5.936,1.152.834a1.37,1.37,0,0,0-.013.186v.99a1.628,1.628,0,0,0,.5,1.176l-.323.654a1.378,1.378,0,0,0-.145.611v5.56a1.39,1.39,0,0,0,.145.614l1.076,2.177a1.378,1.378,0,0,0,2.47,0l1.079-2.177v0a1.367,1.367,0,0,0,.143-.611v-5.56a1.356,1.356,0,0,0-.143-.608v0l-.323-.654a1.636,1.636,0,0,0,.5-1.176v-.99a1.482,1.482,0,0,0-.013-.218l1.047-.8h4.642a5.837,5.837,0,0,1,2.287.463,5.969,5.969,0,0,1,2.6,2.145,5.842,5.842,0,0,1,1.009,3.288v7.7H66.575v-10.9a10.561,10.561,0,0,0-.309-2.524,5.692,5.692,0,0,1,1.413-.175ZM66.4,38.557a4.69,4.69,0,0,1-.03-.549V36.8a1.043,1.043,0,0,0-.931-1.033.621.621,0,0,1-.156-.132,2.53,2.53,0,0,1-.433-.7,4.838,4.838,0,0,1-.326-1.144c-.011-.062-.019-.129-.027-.2v-.005a4.79,4.79,0,0,1-.038-.608,3.69,3.69,0,0,1,.04-.595,2.325,2.325,0,0,1,.143-.536l0-.005.016-.048.019-.054.008-.027,0-.013.035.057L66.559,34.2a1.041,1.041,0,0,0,1.851-.842c0-.011-.075-.358-.145-.807-.035-.226-.07-.476-.094-.721a6.33,6.33,0,0,1-.04-.667v-.075a1.969,1.969,0,0,0,.2-.148,2.244,2.244,0,0,0,.388-.449,4.973,4.973,0,0,0,.39-.7,4.692,4.692,0,0,0,.649.409A5.309,5.309,0,0,0,71,30.653a4.77,4.77,0,0,0,.595.1,1.042,1.042,0,0,0,.783-1.814c-.067-.059-.126-.116-.186-.172.716.132,1.631.277,2.8.425a14.455,14.455,0,0,0,1.849.118c.735,0,1.38-.054,1.924-.1s.99-.094,1.3-.094a1.944,1.944,0,0,1,.361.027.606.606,0,0,1,.116.032.14.14,0,0,1,.051.038.8.8,0,0,1,.116.229,3.165,3.165,0,0,0,.823,1.273,3.372,3.372,0,0,0,.823.573,4.471,4.471,0,0,0,1.224.393,5.822,5.822,0,0,0,.977.081,4.406,4.406,0,0,0,.541-.027,1.035,1.035,0,0,0,.853-.675L85.972,31a.825.825,0,0,0,.054.135,2.006,2.006,0,0,1,.151.482,3.817,3.817,0,0,1,.065.721,4.86,4.86,0,0,1-.038.611v0c-.008.067-.019.132-.027.2a5.243,5.243,0,0,1-.234.912,2.936,2.936,0,0,1-.5.9.873.873,0,0,1-.175.156l-.013.008a1.041,1.041,0,0,0-.928,1.033v1.865a5.089,5.089,0,0,1-2.546,4.392l-3.533,2.042,0,0-.358.207-.005,0c-.11.065-.226.124-.347.183a5.107,5.107,0,0,1-4.125.116h-.005c-.1-.04-.194-.083-.293-.132s-.215-.11-.312-.167l-.005,0-3.888-2.247A5.086,5.086,0,0,1,66.4,38.557m.9-9.319Zm-.525-5.829c.686-.565,1.442-1.133,2.026-1.555.14-.1.272-.2.388-.28a6.014,6.014,0,0,0,.536.309h0a1.215,1.215,0,0,0,.56.132,1.4,1.4,0,0,0,.433-.07,1.741,1.741,0,0,0,.291-.126,2.9,2.9,0,0,0,.4-.272,6.9,6.9,0,0,0,.56-.522c.264-.269.522-.546.735-.748a2.713,2.713,0,0,1,.266-.229L73.028,20c.135-.043.32-.091.517-.137.1-.024.213-.048.32-.07a.886.886,0,0,0,.126.159,1.029,1.029,0,0,0,.234.188,1.2,1.2,0,0,0,.347.14,1.32,1.32,0,0,0,.272.027,1.5,1.5,0,0,0,.3-.03,3.009,3.009,0,0,0,.393-.118c.2-.078.4-.167.619-.261.32-.14.67-.288,1.012-.4a3.343,3.343,0,0,1,.947-.172,1.436,1.436,0,0,1,.339.038.915.915,0,0,1,.269.11c.218.132.422.253.616.366l0,.067a1.051,1.051,0,0,0,.038.288,1.169,1.169,0,0,0,.175.363,1.264,1.264,0,0,0,.161.18,1.577,1.577,0,0,0,.231.175,2.947,2.947,0,0,0,.361.194c.213.1.449.2.708.318.385.167.807.355,1.173.554a4.9,4.9,0,0,1,.49.3,1.864,1.864,0,0,1,.3.253c.04.043.078.083.113.124a1.31,1.31,0,0,0-.116.239,1.175,1.175,0,0,0-.07.406,1.291,1.291,0,0,0,.067.412,1.518,1.518,0,0,0,.121.272,2.049,2.049,0,0,0,.253.355,5.111,5.111,0,0,0,.484.482c.256.223.533.441.791.646.183.145.355.283.5.4v.057a4.036,4.036,0,0,1-.04.5,12.034,12.034,0,0,1-.253,1.224c-.167.659-.377,1.34-.546,1.849-.019.054-.035.11-.054.161-.07-.005-.143-.013-.215-.024a2.9,2.9,0,0,1-.452-.1,1.581,1.581,0,0,1-.552-.293,1.073,1.073,0,0,1-.191-.207,1.251,1.251,0,0,1-.148-.288,2.821,2.821,0,0,0-.417-.791,2.322,2.322,0,0,0-.482-.466,2.348,2.348,0,0,0-.861-.374,3.828,3.828,0,0,0-.845-.083c-.479,0-.961.054-1.488.1s-1.1.094-1.736.094a12.446,12.446,0,0,1-1.582-.1c-1.913-.245-3.1-.474-3.789-.635-.344-.081-.565-.143-.689-.183-.062-.019-.1-.032-.118-.04l-.008,0h0a1.038,1.038,0,0,0-1.34.514,1.065,1.065,0,0,0-.6-.159,1.046,1.046,0,0,0-.961.77c0,.011-.046.167-.116.393-.054.17-.124.377-.2.589-.059.159-.124.323-.191.468a2.811,2.811,0,0,1-.148.3c-.035.065-.07.121-.1.161a1.168,1.168,0,0,0-.188.081,1.344,1.344,0,0,0-.565.624c-.178-.487-.412-1.168-.619-1.892-.14-.487-.266-.993-.355-1.464a6.9,6.9,0,0,1-.143-1.235,2.116,2.116,0,0,1,.035-.412.691.691,0,0,1,.027-.086l0-.008a4.254,4.254,0,0,1,.388-.439c.309-.315.735-.689,1.192-1.066m16.418-.891v0l0,0ZM74.718,62.2Zm2.764-14.706a.88.88,0,0,0,0,.118v1.157l-1.058.813-.256-.148a1.644,1.644,0,0,0-.818-.221,1.615,1.615,0,0,0-.815.221l-.274.156L73.1,48.75V47.063a7.153,7.153,0,0,0,4.427.024Zm10.49,2.115a7.942,7.942,0,0,0-4.456-1.367H79.562v-.6l.161-1.625,3.1-1.792a7.175,7.175,0,0,0,3.587-6.192V36.856a2.663,2.663,0,0,0,.5-.414,4.5,4.5,0,0,0,.84-1.3,6.937,6.937,0,0,0,.479-1.66c.016-.1.027-.188.038-.28a6.753,6.753,0,0,0,.054-.861,5.847,5.847,0,0,0-.1-1.125,4.009,4.009,0,0,0-.274-.883l-.853-3.3c.019-.1.038-.21.051-.315a5.615,5.615,0,0,0,.062-.786,2.742,2.742,0,0,0-.075-.678,1.893,1.893,0,0,0-.143-.379,1.491,1.491,0,0,0-.3-.4c-.207-.188-.433-.369-.659-.549-.14-.113-.277-.221-.409-.328a1.034,1.034,0,0,0,.03-.159,1.076,1.076,0,0,0,.008-.143,2.12,2.12,0,0,0-.223-.888,5.088,5.088,0,0,0-.928-1.294,3.7,3.7,0,0,0-.554-.482,7.645,7.645,0,0,0-1.031-.614,1.041,1.041,0,0,0-.686-1.036l0,0h0A15.631,15.631,0,0,1,79.8,17.7a2.971,2.971,0,0,0-.845-.353,3.543,3.543,0,0,0-.842-.1,4.859,4.859,0,0,0-1.3.191,9.939,9.939,0,0,0-1.3.471,1.032,1.032,0,0,0-.931-.353c-.011,0-.347.051-.788.132-.221.04-.468.089-.716.148s-.5.121-.729.2a2.178,2.178,0,0,0-.549.285,5.4,5.4,0,0,0-.694.6c-.156.156-.309.315-.452.463-.1.11-.207.215-.3.3-.032.035-.065.065-.1.094-.051-.035-.1-.07-.145-.1-.081-.057-.148-.108-.194-.143l-.051-.04-.011-.008v0l0,0a1.042,1.042,0,0,0-1.249-.054c-.008.005-.982.675-2.094,1.526-.557.425-1.146.9-1.674,1.359-.264.234-.514.463-.737.692a5.512,5.512,0,0,0-.595.684,2.265,2.265,0,0,0-.371.861,3.865,3.865,0,0,0-.086.861,8.882,8.882,0,0,0,.178,1.628c.032.164.067.331.1.5l-.659,3.627a4.658,4.658,0,0,0-.231.9,6.277,6.277,0,0,0-.065.912,6.767,6.767,0,0,0,.054.864c.011.089.022.18.038.277a6.8,6.8,0,0,0,.334,1.294,4.926,4.926,0,0,0,.888,1.563,2.786,2.786,0,0,0,.6.522v.509a7.386,7.386,0,0,0,.04.772,7.172,7.172,0,0,0,3.547,5.441l3.14,1.814v2.207H67.679a7.977,7.977,0,0,0-2.115.288,10.688,10.688,0,0,0-3.649-4.246,10.5,10.5,0,0,0-5.891-1.808h-5.8V41.256l.242-2.454,4.427-2.556a9.452,9.452,0,0,0,4.723-8.154V26.272a3.34,3.34,0,0,0,.791-.619,5.809,5.809,0,0,0,1.076-1.676,9.117,9.117,0,0,0,.63-2.18c.019-.126.035-.25.051-.369a9.7,9.7,0,0,0,.07-1.136,7.73,7.73,0,0,0-.135-1.464,5.33,5.33,0,0,0-.366-1.163l-1.195-4.626c.03-.17.057-.339.081-.5a8.069,8.069,0,0,0,.081-1.023,3.428,3.428,0,0,0-.094-.837,1.889,1.889,0,0,0-.164-.436A1.554,1.554,0,0,0,60.1,9.8c-.269-.248-.573-.492-.883-.74-.231-.183-.466-.366-.684-.544l-.1-.086a1.02,1.02,0,0,0,.126-.379,1.2,1.2,0,0,0,.008-.153A2.479,2.479,0,0,0,58.3,6.846a6.673,6.673,0,0,0-1.2-1.676,4.727,4.727,0,0,0-.705-.608,10.086,10.086,0,0,0-1.4-.832l-.213-.1,0-.005a1.047,1.047,0,0,0-.649-1.273A22.047,22.047,0,0,1,50.739.562,3.776,3.776,0,0,0,49.687.126,4.389,4.389,0,0,0,48.626,0a6.413,6.413,0,0,0-1.685.248A14.333,14.333,0,0,0,44.918,1L44.913.988A1.037,1.037,0,0,0,43.834.422c-.011,0-.468.067-1.066.178-.3.054-.632.121-.963.2s-.662.164-.966.264a2.561,2.561,0,0,0-.651.342,7.079,7.079,0,0,0-.9.78c-.213.21-.417.425-.614.63-.145.151-.288.3-.417.425s-.264.25-.366.334c-.164-.1-.328-.21-.463-.307-.116-.081-.21-.153-.277-.2-.032-.024-.057-.046-.073-.059l-.019-.013,0,0a1.043,1.043,0,0,0-1.249-.054c-.008.008-1.34.92-2.855,2.08-.759.579-1.561,1.219-2.274,1.846-.358.315-.692.624-.99.928a7.649,7.649,0,0,0-.778.893,2.764,2.764,0,0,0-.447,1.036,5.276,5.276,0,0,0-.108,1.1,11.846,11.846,0,0,0,.239,2.155c.048.25.1.5.159.745L27.83,18.8a5.831,5.831,0,0,0-.309,1.184,8.122,8.122,0,0,0-.086,1.192,9.622,9.622,0,0,0,.07,1.133c.016.121.032.242.051.369a9.559,9.559,0,0,0,.439,1.7A6.442,6.442,0,0,0,29.138,26.4a3.547,3.547,0,0,0,.818.7c.032.022.065.038.1.057v.912a9.132,9.132,0,0,0,.057,1.017,9.443,9.443,0,0,0,4.666,7.163l4.5,2.6v3.633H34.321a10.435,10.435,0,0,0-4.1.834,10.63,10.63,0,0,0-4.642,3.824,10.4,10.4,0,0,0-.71,1.222,8.035,8.035,0,0,0-1.052-.07H19.862v-.592l.161-1.636,3.105-1.792a7.182,7.182,0,0,0,3.587-6.195V36.9a2.752,2.752,0,0,0,.5-.414,4.5,4.5,0,0,0,.84-1.3,6.937,6.937,0,0,0,.479-1.66c.016-.1.03-.191.04-.28a7.288,7.288,0,0,0,.054-.861,5.826,5.826,0,0,0-.1-1.125,4.158,4.158,0,0,0-.274-.883l-.853-3.3c.019-.1.038-.21.051-.315a6.091,6.091,0,0,0,.062-.786,2.75,2.75,0,0,0-.078-.678,1.614,1.614,0,0,0-.143-.379,1.4,1.4,0,0,0-.3-.4c-.2-.188-.431-.369-.657-.549-.14-.113-.28-.221-.412-.328a.792.792,0,0,0,.032-.159,1.1,1.1,0,0,0,.008-.143,2.132,2.132,0,0,0-.226-.888,5.188,5.188,0,0,0-.926-1.3,3.992,3.992,0,0,0-.554-.479,7.672,7.672,0,0,0-1.033-.614,1.044,1.044,0,0,0-.684-1.039,16.1,16.1,0,0,1-2.425-1.278,3.041,3.041,0,0,0-.845-.35,3.424,3.424,0,0,0-.842-.1,4.97,4.97,0,0,0-1.3.188,9.779,9.779,0,0,0-1.3.474,1.04,1.04,0,0,0-.934-.353c-.008,0-.347.048-.788.132-.221.04-.466.089-.713.145s-.5.124-.732.2a2.031,2.031,0,0,0-.546.283,5.447,5.447,0,0,0-.694.6c-.159.156-.309.315-.452.463-.108.11-.207.215-.3.3l-.1.094-.148-.1c-.078-.057-.145-.108-.191-.143l-.051-.04-.011-.008,0,0a1.046,1.046,0,0,0-1.249-.051c-.008.005-.982.675-2.094,1.526-.557.425-1.146.9-1.676,1.359-.264.231-.511.463-.737.689a6.263,6.263,0,0,0-.595.686,2.3,2.3,0,0,0-.371.858,4.069,4.069,0,0,0-.083.864,8.882,8.882,0,0,0,.178,1.628c.032.164.067.331.1.5l-.659,3.627a4.469,4.469,0,0,0-.231.9,5.916,5.916,0,0,0-.067.912,7.332,7.332,0,0,0,.054.864c.011.089.024.18.038.277A7.348,7.348,0,0,0,3.1,35.457a4.926,4.926,0,0,0,.888,1.563,3.005,3.005,0,0,0,.6.522v.509a6.72,6.72,0,0,0,.043.772,7.176,7.176,0,0,0,3.544,5.441l3.143,1.814v1.494l0,.011v.7H7.981a7.921,7.921,0,0,0-3.1.63A8.036,8.036,0,0,0,1.37,51.807,7.931,7.931,0,0,0,0,56.263v7.992a1.763,1.763,0,0,0,.143.7,1.791,1.791,0,0,0,1.647,1.09H64.511a2.094,2.094,0,0,0,.412-.04H89.707a1.789,1.789,0,0,0,1.48-.788,1.752,1.752,0,0,0,.307-1V56.22a7.863,7.863,0,0,0-.63-3.1,8.036,8.036,0,0,0-2.893-3.509" transform="translate(0 0)" fill="#fff"/>
      <path id="Tracciato_3938" data-name="Tracciato 3938" d="M27.7,18.37Z" transform="translate(46.834 31.064)" fill="#fff"/>
    </g>
  </g>
</svg>
