<svg id="ICONA_LISTA_PRATICHE" data-name="ICONA LISTA PRATICHE" xmlns="http://www.w3.org/2000/svg" xmlns:xlink="http://www.w3.org/1999/xlink" width="130.99" height="114.131" viewBox="0 0 130.99 114.131">
  <defs>
    <clipPath id="clip-path">
      <rect id="Rettangolo_939" data-name="Rettangolo 939" width="51.188" height="65.435" transform="translate(0 0)" fill="none"/>
    </clipPath>
  </defs>
  <g id="Raggruppa_2655" data-name="Raggruppa 2655" transform="translate(-1254.505 -175)">
    <path id="Tracciato_3925" data-name="Tracciato 3925" d="M60.5,0C76.409,0,80.471,10.695,91.455,19.764c11.7,9.663,29.552,18.436,29.552,33.993,0,17.962-9.915,33.867-25.3,43.725-9.794,6.277-7.492,12.649-20.691,12.649C41.6,110.131,0,83.447,0,53.757S27.088,0,60.5,0Z" transform="translate(1254.505 175)" fill="#61a4d7" opacity="0.371"/>
    <path id="Tracciato_3926" data-name="Tracciato 3926" d="M62.244,0C78.607,0,82.786,11,94.085,20.333c12.041,9.941,30.4,18.966,30.4,34.971,0,18.479-10.2,34.841-26.026,44.983C88.385,106.744,90.754,113.3,77.175,113.3,42.8,113.3,0,85.847,0,55.3S27.867,0,62.244,0Z" transform="translate(1261.008 175.832)" fill="#61a4d7" opacity="0.156"/>
  </g>
  <g id="ICONA_LISTA_PRATICHE-2" data-name="ICONA LISTA PRATICHE" transform="translate(39.901 24.848)">
    <g id="Raggruppa_2661" data-name="Raggruppa 2661" clip-path="url(#clip-path)">
      <path id="Tracciato_3957" data-name="Tracciato 3957" d="M27.088,27.391h0a5.189,5.189,0,0,0-1.615-1.056,5.127,5.127,0,0,0-1.678-.38v-.1a4.39,4.39,0,1,0-6.034-6.061,4.388,4.388,0,0,0,1.389,6.05l.017.011v.1a5.127,5.127,0,0,0-1.678.38,5.221,5.221,0,0,0-2.777,2.72,5.135,5.135,0,0,0-.428,2.055,1.079,1.079,0,0,0,.089.43,1.1,1.1,0,0,0,1.015.674H27.575a1.106,1.106,0,0,0,1.1-1.1,5.131,5.131,0,0,0-.429-2.054,5.213,5.213,0,0,0-1.161-1.664" fill="#fff"/>
      <path id="Tracciato_3958" data-name="Tracciato 3958" d="M50.7,3.753a6.19,6.19,0,0,0-2.229-2.7A6.093,6.093,0,0,0,45.043,0H14.368A6.108,6.108,0,0,0,11.8.566l-1.27.789-.676.625a1.223,1.223,0,0,0-.323.83V5.943H6.128a6.041,6.041,0,0,0-2.382.486l0,0A6.169,6.169,0,0,0,1.053,8.655,6.088,6.088,0,0,0,0,12.085V59.29a6.11,6.11,0,0,0,.485,2.392,6.181,6.181,0,0,0,2.224,2.7,6.088,6.088,0,0,0,3.433,1.056H36.818a6.083,6.083,0,0,0,2.39-.486,6.2,6.2,0,0,0,2.7-2.225,6.077,6.077,0,0,0,1.05-3.234h2.334a5.818,5.818,0,0,0,2.29-.466,5.95,5.95,0,0,0,3.141-3.141,5.846,5.846,0,0,0,.465-2.3V6.143a6.1,6.1,0,0,0-.485-2.39M45.289,57.047H42.96V12.086a6.065,6.065,0,0,0-.485-2.39A6.2,6.2,0,0,0,40.25,7a6.1,6.1,0,0,0-3.432-1.053H11.98V3.322a3.72,3.72,0,0,1,.888-.566,3.666,3.666,0,0,1,1.489-.319H45.05a3.618,3.618,0,0,1,1.426.29A3.737,3.737,0,0,1,48.11,4.081a3.649,3.649,0,0,1,.632,2.062V53.588a3.408,3.408,0,0,1-.27,1.339,3.5,3.5,0,0,1-1.849,1.849,3.4,3.4,0,0,1-1.334.271M40.52,12.084l0,47.206a3.653,3.653,0,0,1-.292,1.435,3.717,3.717,0,0,1-1.348,1.633,3.635,3.635,0,0,1-2.055.632H6.142a3.624,3.624,0,0,1-1.431-.29,3.748,3.748,0,0,1-1.635-1.348,3.645,3.645,0,0,1-.634-2.061V12.085a3.646,3.646,0,0,1,.292-1.432A3.721,3.721,0,0,1,4.081,9.02,3.655,3.655,0,0,1,6.14,8.385H36.816a3.7,3.7,0,0,1,1.434.292,3.745,3.745,0,0,1,1.637,1.348,3.658,3.658,0,0,1,.633,2.059" fill="#fff"/>
      <path id="Tracciato_3959" data-name="Tracciato 3959" d="M33.737,11.59l0,0a4.139,4.139,0,0,0-2.33-.716H11.562a4.186,4.186,0,0,0-4.186,4.188V34.9a4.125,4.125,0,0,0,.331,1.628,4.184,4.184,0,0,0,3.855,2.553h19.85a4.174,4.174,0,0,0,4.168-4.183V15.059a4.15,4.15,0,0,0-.331-1.631,4.194,4.194,0,0,0-1.512-1.838m-.1,3.468V34.9a2.19,2.19,0,0,1-.18.87,2.272,2.272,0,0,1-.816.99,2.21,2.21,0,0,1-1.247.383H11.563A2.232,2.232,0,0,1,9.7,36.146,2.2,2.2,0,0,1,9.316,34.9V15.06a2.254,2.254,0,0,1,2.25-2.245H31.4a2.188,2.188,0,0,1,.871.18,2.262,2.262,0,0,1,.99.809,2.221,2.221,0,0,1,.382,1.254" fill="#fff"/>
      <path id="Tracciato_3960" data-name="Tracciato 3960" d="M30.207,42.591h-18.6a1.222,1.222,0,1,0,0,2.444h18.6a1.222,1.222,0,1,0,0-2.444" fill="#fff"/>
      <path id="Tracciato_3961" data-name="Tracciato 3961" d="M30.207,48.19h-18.6a1.222,1.222,0,1,0,0,2.443h18.6a1.222,1.222,0,1,0,0-2.443" fill="#fff"/>
      <path id="Tracciato_3962" data-name="Tracciato 3962" d="M30.207,53.787h-18.6a1.222,1.222,0,1,0,0,2.444h18.6a1.222,1.222,0,0,0,0-2.444" fill="#fff"/>
    </g>
  </g>
</svg>
