<?xml version="1.0" standalone="no"?>
<!DOCTYPE svg PUBLIC "-//W3C//DTD SVG 20010904//EN"
 "http://www.w3.org/TR/2001/REC-SVG-20010904/DTD/svg10.dtd">
<svg version="1.0" xmlns="http://www.w3.org/2000/svg"
 width="4113.000000pt" height="1015.000000pt" viewBox="0 0 4113.000000 1015.000000"
 preserveAspectRatio="xMidYMid meet">

<g transform="translate(0.000000,1015.000000) scale(0.100000,-0.100000)"
fill="#000000" stroke="none">
<path d="M6974 7633 c-720 -587 -1212 -1430 -1363 -2338 -40 -242 -46 -324
-46 -660 0 -345 9 -453 56 -705 167 -877 629 -1668 1311 -2241 161 -135 162
-135 194 -115 125 83 455 396 604 573 504 603 787 1255 892 2058 21 160 18
745 -5 915 -98 734 -368 1371 -821 1940 -123 155 -434 467 -580 583 -60 48
-112 87 -116 87 -3 0 -60 -44 -126 -97z"/>
<path d="M14210 4996 l0 -1696 80 0 80 0 0 675 0 675 554 0 c614 0 649 3 820
64 428 153 684 540 663 1001 -13 269 -106 485 -286 666 -144 144 -309 232
-526 282 -85 19 -128 21 -737 24 l-648 4 0 -1695z m1385 1505 c177 -49 350
-158 456 -285 277 -334 262 -821 -35 -1133 -116 -123 -255 -205 -425 -251
l-96 -26 -562 -4 -563 -3 0 866 0 866 573 -4 c556 -3 574 -4 652 -26z"/>
<path d="M17110 4996 l0 -1696 75 0 75 0 0 735 0 735 521 -2 521 -3 430 -720
c236 -396 432 -726 437 -733 5 -9 32 -12 98 -10 l90 3 -424 710 c-233 391
-430 722 -438 737 l-15 26 73 12 c241 40 466 168 607 346 118 149 185 330 197
534 28 494 -271 878 -772 993 -85 19 -128 20 -782 24 l-693 4 0 -1695z m1429
1520 c170 -40 299 -107 413 -214 172 -162 258 -380 245 -617 -18 -299 -174
-534 -442 -666 -55 -26 -140 -59 -190 -71 -89 -23 -98 -23 -695 -23 l-605 0
-3 795 c-1 437 0 801 3 808 4 11 115 13 602 9 525 -3 607 -6 672 -21z"/>
<path d="M20160 4995 l0 -1695 80 0 80 0 0 1695 0 1695 -80 0 -80 0 0 -1695z"/>
<path d="M21686 6663 c-3 -15 -136 -770 -296 -1678 -160 -907 -293 -1658 -296
-1667 -5 -16 3 -18 78 -18 l83 0 269 1523 c148 837 272 1525 276 1530 3 4 294
-645 646 -1443 l639 -1449 35 -1 35 0 434 983 c828 1871 855 1932 860 1912 2
-11 124 -702 270 -1535 l266 -1515 83 -3 c76 -3 83 -1 79 15 -3 10 -137 773
-298 1696 l-293 1677 -72 0 c-48 0 -74 -4 -77 -12 -30 -74 -1280 -2905 -1285
-2910 -4 -4 -296 650 -648 1455 l-640 1462 -71 3 c-71 3 -71 3 -77 -25z"/>
<path d="M25920 4995 l0 -1695 940 0 940 0 0 75 0 75 -857 2 -858 3 0 770 0
770 768 3 767 2 0 75 0 75 -770 0 -770 0 2 693 3 692 828 3 827 2 0 75 0 75
-910 0 -910 0 0 -1695z"/>
<path d="M29700 4995 l0 -1695 470 0 470 0 0 650 0 650 510 0 510 0 0 -650 0
-650 470 0 470 0 0 1695 0 1695 -470 0 -470 0 0 -610 0 -610 -510 0 -510 0 0
610 0 610 -470 0 -470 0 0 -1695z"/>
<path d="M33223 5533 c3 -1155 3 -1158 25 -1248 49 -198 101 -322 199 -468
157 -236 407 -420 701 -516 277 -91 654 -107 942 -40 291 67 500 179 691 368
190 190 296 387 361 669 22 97 22 102 25 1245 l4 1147 -475 0 -475 0 -4 -1087
c-2 -977 -4 -1093 -19 -1142 -62 -199 -201 -329 -395 -367 -295 -58 -557 112
-618 402 -12 58 -15 237 -15 1132 l0 1062 -475 0 -476 0 4 -1157z"/>
<path d="M36790 4995 l0 -1696 873 4 c843 3 875 4 962 24 424 99 710 359 802
730 26 104 23 322 -5 436 -40 162 -122 308 -236 420 -59 58 -186 149 -226 162
-29 9 -25 17 28 50 100 63 220 203 284 330 66 130 97 308 79 457 -45 386 -334
664 -782 754 -74 15 -188 18 -931 21 l-848 4 0 -1696z m1522 932 c61 -30 96
-65 131 -131 32 -59 32 -203 0 -262 -31 -59 -79 -103 -143 -133 -54 -26 -58
-26 -332 -29 l-278 -3 0 296 0 296 283 -3 282 -3 57 -28z m30 -1274 c196 -90
245 -338 96 -490 -23 -23 -64 -52 -92 -65 -49 -22 -62 -23 -353 -26 l-303 -3
0 306 0 306 303 -3 c285 -3 305 -4 349 -25z"/>
</g>
</svg>
