<svg xmlns="http://www.w3.org/2000/svg" xmlns:xlink="http://www.w3.org/1999/xlink" width="206.972" height="60.066" viewBox="0 0 206.972 60.066">
  <defs>
    <clipPath id="clip-path">
      <rect id="Rettangolo_8" data-name="Rettangolo 8" width="206.972" height="60.066" transform="translate(0 0)" fill="none"/>
    </clipPath>
  </defs>
  <g id="Raggruppa_2" data-name="Raggruppa 2" transform="translate(0 0)">
    <g id="Raggruppa_1" data-name="Raggruppa 1" clip-path="url(#clip-path)">
      <path id="Tracciato_1" data-name="Tracciato 1" d="M206.193,44.148h.78v-1.06h-.78Zm.6-2.107.151-1.208V37.739h-.73v3.094l.151,1.208Zm-6.64-4.3h-.981l-1.6,5.817-1.786-5.817h-.7l2,6.409h.994l1.584-5.83,1.585,5.83h.993l2-6.409h-.7l-1.786,5.817Zm-7.47,1.837v2.736c0,.862-.5,1.318-1.862,1.318s-1.861-.456-1.861-1.318V39.576c0-.863.5-1.319,1.861-1.319s1.862.456,1.862,1.319m-1.862,4.695c1.912,0,2.591-.825,2.591-1.922v-2.81c0-1.1-.679-1.923-2.591-1.923s-2.59.826-2.59,1.923v2.81c0,1.1.679,1.922,2.59,1.922m-6.124-.123h.981V37.739h-.7v5.67l-3.446-5.67h-.981v6.409h.7V38.479Zm-9.745-1.541c0-1.232-.088-1.392-2.05-1.984-1.61-.48-1.61-.505-1.61-1.331,0-.9.176-1.035,1.635-1.035a8.9,8.9,0,0,1,1.849.2l.1-.616a8.233,8.233,0,0,0-1.974-.222c-1.773,0-2.339.394-2.339,1.652,0,1.17.113,1.392,2.062,1.959,1.622.469,1.6.493,1.6,1.38,0,.814-.3,1.023-1.509,1.023a8.568,8.568,0,0,1-2.113-.271l-.113.592a7.545,7.545,0,0,0,2.214.32c1.773,0,2.251-.542,2.251-1.664m-7.043-4.868h-.729v6.409h.729Zm-10.639,6.409h4.188v-.641H158V41.1h3.207v-.641H158V38.38h3.446v-.641h-4.175Zm-5.848-1.787V39.526c0-.985.491-1.269,1.748-1.269a10.1,10.1,0,0,1,1.673.148l.1-.6a9.4,9.4,0,0,0-1.786-.185c-1.786,0-2.465.654-2.465,1.861V42.41c0,1.208.679,1.861,2.465,1.861a9.174,9.174,0,0,0,1.786-.184l-.1-.605a9.991,9.991,0,0,1-1.673.148c-1.257,0-1.748-.283-1.748-1.269m-4.263,1.787h.981V37.739h-.7v5.67l-3.446-5.67h-.981v6.409h.7V38.479Zm-9.306-5.928,1.371,3.685h-2.754Zm2.276,5.928h.742l-2.515-6.409h-1.006l-2.515,6.409h.742l.666-1.652h3.2Zm-8.412,0h.981V37.739H132v5.67l-3.445-5.67h-.981v6.409h.7V38.479Zm-6.98-6.409h-.729v6.409h.729Zm-6.552,6.409V41.325h3.245v-.64h-3.245V38.38h3.5v-.641H117.46v6.409Zm-9.847-6.409h-.98l-1.6,5.817-1.785-5.817h-.7l2,6.409h.993l1.585-5.83,1.585,5.83h.993l2-6.409h-.705l-1.785,5.817Zm-10.89,6.409h4.188v-.641H98.181V41.1h3.207v-.641H98.181V38.38h3.446v-.641H97.452Zm-3.748,0h.981V37.739h-.7v5.67l-3.446-5.67h-.981v6.409h.705V38.479Zm-14,0H83.9v-.641H80.438V41.1h3.206v-.641H80.438V38.38h3.445v-.641H79.708Zm-2.766,0V37.739h-.73v2.749H72.729V37.739H72v6.409h.73v-3.02h3.483v3.02Zm-9.885,0h.729V38.38H70.05v-.641H64.793v.641h2.264Z" fill="#575756"/>
      <path id="Tracciato_2" data-name="Tracciato 2" d="M65.437,15.933h2.2l4.278,11.916,4.3-11.916H78.4V29.616H77.2V17.288h-.275L72.6,29.165H71.191l-4.28-11.877h-.276V29.616h-1.2Z" fill="#575756"/>
      <path id="Tracciato_3" data-name="Tracciato 3" d="M82.007,19.8l2.612,8.7h.706l2.631-8.7h1.2L84.913,34.034H83.735l1.3-4.418H83.7L80.81,19.8Z" fill="#575756"/>
      <path id="Tracciato_4" data-name="Tracciato 4" d="M99.56,18.073c1.178,0,3.475.294,3.475.294l.078-2.022a19.62,19.62,0,0,0-3.867-.53c-3.849,0-5.045,2.081-5.045,7.028,0,4.634.942,6.99,5.045,6.99a23.371,23.371,0,0,0,3.849-.491l-.06-2.08s-2.336.312-3.4.312c-2.593,0-3.065-1.275-3.065-4.731,0-3.632.61-4.77,2.986-4.77" fill="#575756"/>
      <path id="Tracciato_5" data-name="Tracciato 5" d="M107.532,19.82h-2.239v9.8h2.239V23A11.12,11.12,0,0,1,110.5,21.98v-2.4a8.04,8.04,0,0,0-2.963,1.275Z" fill="#575756"/>
      <path id="Tracciato_6" data-name="Tracciato 6" d="M115.933,19.585c-2.728,0-4.26,1.669-4.26,5.242,0,3.455,1.16,5.006,4.123,5.006a23.472,23.472,0,0,0,3.986-.471l-.04-1.747s-2.059.176-3.614.176c-1.588,0-2.176-.687-2.2-2.121h6.027l.157-1.609c0-3.043-1.393-4.476-4.181-4.476m-2,4.339c0-1.63.61-2.337,2-2.337s1.965.628,1.965,2.337Z" fill="#575756"/>
      <path id="Tracciato_7" data-name="Tracciato 7" d="M127.909,19.839a16.191,16.191,0,0,0-2.2-.255c-2.789,0-4.083,1.551-4.083,5.066,0,3.709,1.117,5.182,3.728,5.182a7.018,7.018,0,0,0,2.553-.687v.471h2.257V15.874h-2.257Zm0,7.48a9.13,9.13,0,0,1-2.2.432c-1.2-.039-1.808-.707-1.808-3.083,0-2.159.61-3.042,1.967-3.042.823,0,1.942.176,2.039.176Z" fill="#575756"/>
      <rect id="Rettangolo_2" data-name="Rettangolo 2" width="2.237" height="2.376" transform="translate(133.015 15.853)" fill="#575756"/>
      <rect id="Rettangolo_3" data-name="Rettangolo 3" width="2.237" height="9.796" transform="translate(133.015 19.82)" fill="#575756"/>
      <path id="Tracciato_8" data-name="Tracciato 8" d="M141.514,27.712c-.98,0-1.019-.51-1.019-1.865V21.842h2.65V19.82h-2.65V16.973h-2.238V19.82h-1.236v2.022h1.236v4.319c0,2.827.686,3.691,2.945,3.691a13.787,13.787,0,0,0,2-.274l-.1-1.924s-1.04.058-1.59.058" fill="#575756"/>
      <path id="Tracciato_9" data-name="Tracciato 9" d="M153.157,21.743c-2.275-.648-2.943-.942-2.943-2.1,0-1.1.8-1.61,2.414-1.61,1.139,0,3.889.314,3.889.314l.175-2.06a28.531,28.531,0,0,0-4.064-.491c-2.924,0-4.711,1.3-4.711,3.887,0,2.434,1.216,3.338,4.163,4.1,2.021.511,2.591.922,2.591,1.983,0,1.315-.727,1.826-2.337,1.826-1.393,0-3.888-.333-3.888-.333l-.235,2.061a29.647,29.647,0,0,0,4.143.51c2.749,0,4.632-1.3,4.632-4.123,0-2.376-1-3.141-3.829-3.966" fill="#575756"/>
      <path id="Tracciato_10" data-name="Tracciato 10" d="M166.51,27.614s-2.062.177-3.614.177c-1.588,0-2.18-.687-2.2-2.121h6.027l.159-1.609c0-3.044-1.4-4.476-4.183-4.476-2.728,0-4.26,1.668-4.26,5.242,0,3.455,1.158,5.006,4.123,5.006a23.425,23.425,0,0,0,3.986-.472ZM162.7,21.587c1.393,0,1.965.628,1.965,2.337H160.7c0-1.63.612-2.337,2-2.337" fill="#575756"/>
      <path id="Tracciato_11" data-name="Tracciato 11" d="M174.265,19.585A8.068,8.068,0,0,0,171.3,20.86V19.82h-2.239v9.8H171.3V23a11.143,11.143,0,0,1,2.965-1.021Z" fill="#575756"/>
      <path id="Tracciato_12" data-name="Tracciato 12" d="M181.6,19.82l-1.9,7.932h-.591l-1.864-7.932h-2.335l2.49,9.8h3.968l2.513-9.8Z" fill="#575756"/>
      <rect id="Rettangolo_4" data-name="Rettangolo 4" width="2.239" height="9.796" transform="translate(185.552 19.82)" fill="#575756"/>
      <rect id="Rettangolo_5" data-name="Rettangolo 5" width="2.239" height="2.376" transform="translate(185.552 15.853)" fill="#575756"/>
      <path id="Tracciato_13" data-name="Tracciato 13" d="M197.017,27.535s-1.55.177-2.3.177c-2.061,0-2.474-.766-2.474-3.121,0-2.121.453-2.866,2.455-2.866.746,0,2.3.176,2.3.176l.076-1.943a21.279,21.279,0,0,0-2.983-.374c-2.925,0-4.123,1.493-4.123,5.007,0,3.731,1.081,5.242,4.065,5.242a24.343,24.343,0,0,0,3.041-.354Z" fill="#575756"/>
      <path id="Tracciato_14" data-name="Tracciato 14" d="M206.972,24.061c0-3.043-1.4-4.476-4.181-4.476-2.73,0-4.262,1.669-4.262,5.242,0,3.455,1.16,5.006,4.125,5.006a23.468,23.468,0,0,0,3.984-.471l-.041-1.747s-2.058.176-3.611.176c-1.59,0-2.178-.687-2.2-2.121h6.027Zm-6.184-.137c0-1.63.608-2.337,2-2.337s1.963.628,1.963,2.337Z" fill="#575756"/>
      <path id="Tracciato_15" data-name="Tracciato 15" d="M26.728,0c-.031,0-.058,0-.086,0,.028,0,.055.012.086.016Z" fill="#c6e6e2"/>
      <path id="Tracciato_16" data-name="Tracciato 16" d="M26.631,0h0" fill="#c6e6e2"/>
      <path id="Tracciato_17" data-name="Tracciato 17" d="M26.631,60.053V60.03l-.027.005V44.652c-.04.007-.079.018-.117.022v.01H26.5a.235.235,0,0,1,.034-.006v.008H26.5l-.012,0v0a1.517,1.517,0,0,1-.859-.188L14.256,37.929a1.532,1.532,0,0,1-.646-.758c-.017-.045-.03-.092-.044-.137a1.421,1.421,0,0,1-.081-.44V23.46a1.508,1.508,0,0,1,.367-.983l-13.3-7.65A3.085,3.085,0,0,0,0,16.579v26.9a3.135,3.135,0,0,0,.259,1.184,3.133,3.133,0,0,0,1.322,1.552l23.3,13.45a3.142,3.142,0,0,0,1.85.389v-.018c-.033.005-.063.015-.1.018" fill="#ffd444"/>
      <path id="Tracciato_18" data-name="Tracciato 18" d="M26.7,44.633l-.092.019V60.035l.027-.005c.032,0,.063-.014.094-.018v-.057Z" fill="#ed204b"/>
      <path id="Tracciato_19" data-name="Tracciato 19" d="M52.15,14.842,38.836,22.476c.036.046.079.087.111.136a1.533,1.533,0,0,1,.265.848V36.594a1.472,1.472,0,0,1-.063.43,1.541,1.541,0,0,1-.709.905L27.068,44.5a1.363,1.363,0,0,1-.365.135l3.749,13.512L51.115,46.215a3.161,3.161,0,0,0,1.579-2.736v-26.9a3.117,3.117,0,0,0-.544-1.737" fill="#e4003c"/>
      <path id="Tracciato_20" data-name="Tracciato 20" d="M52.15,14.842a3.1,3.1,0,0,0-1.035-1L27.821.393a3.052,3.052,0,0,0-1.19-.365A.167.167,0,0,0,26.6.022a.167.167,0,0,1,.026.006V.007a3.187,3.187,0,0,0-1.287.172L1.429,13.959a3.214,3.214,0,0,0-.878.869l13.3,7.649a1.51,1.51,0,0,1,.33-.3l11.676-6.728a1.542,1.542,0,0,1,.628-.084h0c.014,0,.027,0,.042,0v.009l-.042-.008h0v.01c.039.005.077.016.118.023a1.432,1.432,0,0,1,.463.156L38.44,22.125a1.466,1.466,0,0,1,.4.352h0Z" fill="#61a4d7"/>
      <path id="Tracciato_21" data-name="Tracciato 21" d="M38.836,22.476,52.15,14.842Z" fill="#9bc3e4"/>
      <rect id="Rettangolo_6" data-name="Rettangolo 6" height="0.004" transform="translate(26.489 15.367)" fill="#fff"/>
      <path id="Tracciato_22" data-name="Tracciato 22" d="M26.491,15.369h0Z" fill="#fff"/>
      <path id="Tracciato_23" data-name="Tracciato 23" d="M26.491,15.369h0c.013,0,.027,0,.042.007v-.008c-.015,0-.029,0-.042,0" fill="#fff"/>
      <path id="Tracciato_24" data-name="Tracciato 24" d="M26.491,15.369c.013,0,.027,0,.042.007-.015,0-.029-.006-.042-.007" fill="#fff"/>
      <path id="Tracciato_25" data-name="Tracciato 25" d="M26.533,15.368h0c-.015,0-.029,0-.042,0,.013,0,.027,0,.042,0" fill="#fff"/>
      <path id="Tracciato_26" data-name="Tracciato 26" d="M26.491,15.369" fill="#fff"/>
      <path id="Tracciato_27" data-name="Tracciato 27" d="M26.491,15.369" fill="#fff"/>
      <path id="Tracciato_28" data-name="Tracciato 28" d="M26.491,15.369" fill="#fff"/>
      <path id="Tracciato_29" data-name="Tracciato 29" d="M26.5,44.684" fill="#fff"/>
      <path id="Tracciato_30" data-name="Tracciato 30" d="M26.5,44.684" fill="#fff"/>
      <path id="Tracciato_31" data-name="Tracciato 31" d="M26.5,44.684h.027l.006-.009-.033.007" fill="#fff"/>
      <path id="Tracciato_32" data-name="Tracciato 32" d="M26.531,44.678v.009h0v-.009a.239.239,0,0,0-.035.007l.033-.007" fill="#fff"/>
      <path id="Tracciato_33" data-name="Tracciato 33" d="M26.5,44.684h0" fill="#fff"/>
      <rect id="Rettangolo_7" data-name="Rettangolo 7" width="0.001" height="0.012" transform="translate(26.492 44.679)" fill="#fff"/>
      <path id="Tracciato_34" data-name="Tracciato 34" d="M26.487,44.684v0Z" fill="#fff"/>
      <path id="Tracciato_35" data-name="Tracciato 35" d="M26.5,44.684" fill="#fff"/>
      <path id="Tracciato_36" data-name="Tracciato 36" d="M26.7,44.632h0l-.006-.018v.019l.029,15.322v.065a3.821,3.821,0,0,0,1.164-.36l2.572-1.481-.009-.035Z" fill="#910d38"/>
      <path id="Tracciato_37" data-name="Tracciato 37" d="M26.7,44.633h0l.029,15.322Z" fill="#9f1c40"/>
      <path id="Tracciato_38" data-name="Tracciato 38" d="M26.7,44.632h0l3.75,13.512Z" fill="#9f1c40"/>
    </g>
  </g>
</svg>
